<svg xmlns="http://www.w3.org/2000/svg" width="792" height="612" viewBox="0 0 792 612">
  <rect width="792" height="612" fill="rgb(255,255,255)" />
  <line stroke="rgb(51,235,186)" stroke-width="1" x1="10" y1="602" x2="351" y2="602" />
  <line stroke="rgb(51,235,186)" stroke-width="1" x1="10" y1="522" x2="351" y2="522" />
  <line stroke="rgb(51,235,186)" stroke-width="1" x1="10" y1="442" x2="351" y2="442" />
  <line stroke="rgb(51,235,186)" stroke-width="1" x1="10" y1="347.6" x2="351" y2="347.6" />
  <line stroke="rgb(51,235,186)" stroke-width="1" x1="10" y1="241.5" x2="351" y2="241.5" />
  <line stroke="rgb(51,235,186)" stroke-width="1" x1="10" y1="602" x2="10" y2="20" />
  <line stroke="rgb(51,235,186)" stroke-width="1" x1="130" y1="602" x2="130" y2="20" />
  <line stroke="rgb(51,235,186)" stroke-width="1" x1="240" y1="602" x2="240" y2="20" />
  <line stroke="rgb(51,235,186)" stroke-width="1" x1="351" y1="602" x2="351" y2="20" />
  <rect stroke="rgb(125,51,235)" stroke-width="2" fill="none" x="10" y="10" width="772" height="592" />
  <text x="2" y="572" font-family="Courier New" font-size="12" fill="rgb(236,10,30)">1</text>
  <text x="2" y="492" font-family="Courier New" font-size="12" fill="rgb(236,10,30)">2</text>
  <text x="2" y="412" font-family="Courier New" font-size="12" fill="rgb(236,10,30)">3</text>
  <text x="2" y="317.6" font-family="Courier New" font-size="12" fill="rgb(236,10,30)">4</text>
  <text x="40" y="610" font-family="Courier New" font-size="12" fill="rgb(236,10,30)">1</text>
  <text x="160" y="610" font-family="Courier New" font-size="12" fill="rgb(236,10,30)">2</text>
  <text x="270" y="610" font-family="Courier New" font-size="12" fill="rgb(236,10,30)">3</text>
  <text x="15" y="37" font-family="Verdana" font-size="11" fill="rgb(0,64,128)" font-weight="bold">Binary Association</text>
  <line stroke="rgb(0,0,0)" stroke-width="1" x1="70.0" y1="337.6" x2="70.0" y2="394.8" />
  <line stroke="rgb(0,0,0)" stroke-width="1" x1="70.0" y1="394.8" x2="250" y2="394.8" />
  <g transform="rotate(180,70.0,337.6)">
    <polygon stroke="rgb(0,0,0)" stroke-width="1" fill="rgb(0,0,0)" points="67.0,328.6 70.0,337.6 73.0,328.6" />
  </g>
  <g transform="rotate(270,250,394.8)">
    <polygon stroke="rgb(0,0,0)" stroke-width="1" fill="rgb(0,0,0)" points="247,385.8 250,394.8 253,385.8" />
  </g>
  <rect stroke="rgb(0,0,0)" stroke-width="1" fill="rgb(255,255,255)" x="20" y="278.5" width="100" height="59.1" />
  <rect stroke="rgb(0,0,0)" stroke-width="1" fill="rgb(255,255,255)" x="20" y="251.5" width="100" height="27.0" />
  <rect stroke="rgb(0,0,0)" stroke-width="1" fill="rgb(255,255,255)" x="250" y="384.6" width="91" height="47.4" />
  <rect stroke="rgb(0,0,0)" stroke-width="1" fill="rgb(255,255,255)" x="250" y="357.6" width="91" height="27.0" />
  <text x="25" y="327.6" font-family="Gill Sans" font-size="9" fill="rgb(0,0,0)">Heading : Compass</text>
  <text x="25" y="315.90000000000003" font-family="Gill Sans" font-size="9" fill="rgb(0,0,0)">Airspeed : Knots</text>
  <text x="25" y="304.20000000000005" font-family="Gill Sans" font-size="9" fill="rgb(0,0,0)">Altitude : Altitude MSL</text>
  <text x="25" y="292.50000000000006" font-family="Gill Sans" font-size="9" fill="rgb(0,0,0)">Tail number : ACAO {I}</text>
  <text x="45.5" y="271.0" font-family="Gill Sans" font-size="12" fill="rgb(0,0,0)" font-weight="bold">Aircraft</text>
  <text x="255" y="422.0" font-family="Gill Sans" font-size="9" fill="rgb(0,0,0)">Aircraft : ACAO {R1}</text>
  <text x="255" y="410.3" font-family="Gill Sans" font-size="9" fill="rgb(0,0,0)">Hours flown : Hours</text>
  <text x="255" y="398.6" font-family="Gill Sans" font-size="9" fill="rgb(0,0,0)">ID : Pilot ID {I}</text>
  <text x="280.5" y="377.1" font-family="Gill Sans" font-size="12" fill="rgb(0,0,0)" font-weight="bold">Pilot</text>
  <text x="35.0" y="356.6" font-family="Gill Sans" font-size="9" fill="rgb(0,0,0)">is flying</text>
  <text x="200" y="386.8" font-family="Gill Sans" font-size="9" fill="rgb(0,0,0)">is flown by</text>
  <text x="156.0" y="388.8" font-family="Gill Sans" font-size="9" fill="rgb(0,0,0)">R1</text>
</svg>