<svg xmlns="http://www.w3.org/2000/svg" width="792" height="612" viewBox="0 0 792 612">
  <rect width="792" height="612" fill="rgb(255,255,255)" />
  <line stroke="rgb(51,235,186)" stroke-width="1" x1="10" y1="602" x2="351" y2="602" />
  <line stroke="rgb(51,235,186)" stroke-width="1" x1="10" y1="495.9" x2="351" y2="495.9" />
  <line stroke="rgb(51,235,186)" stroke-width="1" x1="10" y1="395.9" x2="351" y2="395.9" />
  <line stroke="rgb(51,235,186)" stroke-width="1" x1="10" y1="602" x2="10" y2="20" />
  <line stroke="rgb(51,235,186)" stroke-width="1" x1="130" y1="602" x2="130" y2="20" />
  <line stroke="rgb(51,235,186)" stroke-width="1" x1="240" y1="602" x2="240" y2="20" />
  <line stroke="rgb(51,235,186)" stroke-width="1" x1="351" y1="602" x2="351" y2="20" />
  <rect stroke="rgb(125,51,235)" stroke-width="2" fill="none" x="10" y="10" width="772" height="592" />
  <text x="2" y="572" font-family="Courier New" font-size="12" fill="rgb(236,10,30)">1</text>
  <text x="2" y="465.9" font-family="Courier New" font-size="12" fill="rgb(236,10,30)">2</text>
  <text x="40" y="610" font-family="Courier New" font-size="12" fill="rgb(236,10,30)">1</text>
  <text x="160" y="610" font-family="Courier New" font-size="12" fill="rgb(236,10,30)">2</text>
  <text x="270" y="610" font-family="Courier New" font-size="12" fill="rgb(236,10,30)">3</text>
  <text x="15" y="37" font-family="Verdana" font-size="11" fill="rgb(0,64,128)" font-weight="bold">Binary Association</text>
  <line stroke="rgb(0,0,0)" stroke-width="1" x1="70.0" y1="505.9" x2="70.0" y2="445.9" />
  <line stroke="rgb(0,0,0)" stroke-width="1" x1="70.0" y1="445.9" x2="295.5" y2="445.9" />
  <line stroke="rgb(0,0,0)" stroke-width="1" x1="295.5" y1="445.9" x2="295.5" y2="511.75" />
  <g>
    <polygon stroke="rgb(0,0,0)" stroke-width="1" fill="rgb(0,0,0)" points="67.0,496.9 70.0,505.9 73.0,496.9" />
  </g>
  <g>
    <polygon stroke="rgb(0,0,0)" stroke-width="1" fill="rgb(0,0,0)" points="292.5,502.75 295.5,511.75 298.5,502.75" />
  </g>
  <rect stroke="rgb(0,0,0)" stroke-width="1" fill="rgb(255,255,255)" x="20" y="532.9" width="100" height="59.1" />
  <rect stroke="rgb(0,0,0)" stroke-width="1" fill="rgb(255,255,255)" x="20" y="505.9" width="100" height="27.0" />
  <rect stroke="rgb(0,0,0)" stroke-width="1" fill="rgb(255,255,255)" x="250" y="538.75" width="91" height="47.4" />
  <rect stroke="rgb(0,0,0)" stroke-width="1" fill="rgb(255,255,255)" x="250" y="511.75" width="91" height="27.0" />
  <text x="25" y="582.0" font-family="Gill Sans" font-size="9" fill="rgb(0,0,0)">Heading : Compass</text>
  <text x="25" y="570.3" font-family="Gill Sans" font-size="9" fill="rgb(0,0,0)">Airspeed : Knots</text>
  <text x="25" y="558.6" font-family="Gill Sans" font-size="9" fill="rgb(0,0,0)">Altitude : Altitude MSL</text>
  <text x="25" y="546.9" font-family="Gill Sans" font-size="9" fill="rgb(0,0,0)">Tail number : ACAO {I}</text>
  <text x="45.5" y="525.4" font-family="Gill Sans" font-size="12" fill="rgb(0,0,0)" font-weight="bold">Aircraft</text>
  <text x="255" y="576.15" font-family="Gill Sans" font-size="9" fill="rgb(0,0,0)">Aircraft : ACAO {R1}</text>
  <text x="255" y="564.45" font-family="Gill Sans" font-size="9" fill="rgb(0,0,0)">Hours flown : Hours</text>
  <text x="255" y="552.75" font-family="Gill Sans" font-size="9" fill="rgb(0,0,0)">ID : Pilot ID {I}</text>
  <text x="280.5" y="531.25" font-family="Gill Sans" font-size="12" fill="rgb(0,0,0)" font-weight="bold">Pilot</text>
  <text x="35.0" y="495.9" font-family="Gill Sans" font-size="9" fill="rgb(0,0,0)">is flying</text>
  <text x="303.5" y="501.75" font-family="Gill Sans" font-size="9" fill="rgb(0,0,0)">is flown by</text>
  <text x="178.75" y="439.9" font-family="Gill Sans" font-size="9" fill="rgb(0,0,0)">R1</text>
</svg>