<svg xmlns="http://www.w3.org/2000/svg" width="792" height="612" viewBox="0 0 792 612">
  <rect width="792" height="612" fill="rgb(255,255,255)" />
  <line stroke="rgb(51,235,186)" stroke-width="1" x1="10" y1="602" x2="411" y2="602" />
  <line stroke="rgb(51,235,186)" stroke-width="1" x1="10" y1="507.6" x2="411" y2="507.6" />
  <line stroke="rgb(51,235,186)" stroke-width="1" x1="10" y1="401.5" x2="411" y2="401.5" />
  <line stroke="rgb(51,235,186)" stroke-width="1" x1="10" y1="301.5" x2="411" y2="301.5" />
  <line stroke="rgb(51,235,186)" stroke-width="1" x1="10" y1="602" x2="10" y2="20" />
  <line stroke="rgb(51,235,186)" stroke-width="1" x1="164" y1="602" x2="164" y2="20" />
  <line stroke="rgb(51,235,186)" stroke-width="1" x1="274" y1="602" x2="274" y2="20" />
  <line stroke="rgb(51,235,186)" stroke-width="1" x1="411" y1="602" x2="411" y2="20" />
  <rect stroke="rgb(125,51,235)" stroke-width="2" fill="none" x="10" y="10" width="772" height="592" />
  <text x="2" y="572" font-family="Verdana" font-size="16" fill="rgb(255,255,255)">1</text>
  <text x="2" y="477.6" font-family="Verdana" font-size="16" fill="rgb(255,255,255)">2</text>
  <text x="2" y="371.5" font-family="Verdana" font-size="16" fill="rgb(255,255,255)">3</text>
  <text x="40" y="610" font-family="Verdana" font-size="16" fill="rgb(255,255,255)">1</text>
  <text x="194" y="610" font-family="Verdana" font-size="16" fill="rgb(255,255,255)">2</text>
  <text x="304" y="610" font-family="Verdana" font-size="16" fill="rgb(255,255,255)">3</text>
  <text x="15" y="37" font-family="Eurostile BoldExtendedTwo" font-size="11" fill="rgb(0,64,128)">Binary Association</text>
  <line stroke="rgb(0,0,0)" stroke-width="1" x1="87.0" y1="411.5" x2="87.0" y2="351.5" />
  <line stroke="rgb(0,0,0)" stroke-width="1" x1="87.0" y1="351.5" x2="342.5" y2="351.5" />
  <line stroke="rgb(0,0,0)" stroke-width="1" x1="342.5" y1="351.5" x2="342.5" y2="517.6" />
  <g>
    <polygon stroke="rgb(0,0,0)" stroke-width="1" fill="rgb(0,0,0)" points="84.0,402.5 87.0,411.5 90.0,402.5" />
  </g>
  <g>
    <polygon stroke="rgb(0,0,0)" stroke-width="1" fill="rgb(0,0,0)" points="339.5,508.6 342.5,517.6 345.5,508.6" />
  </g>
  <rect stroke="rgb(0,0,0)" stroke-width="1" fill="rgb(255,255,255)" x="20" y="438.5" width="134" height="59.1" />
  <rect stroke="rgb(0,0,0)" stroke-width="1" fill="rgb(255,255,255)" x="20" y="411.5" width="134" height="27.0" />
  <rect stroke="rgb(0,0,0)" stroke-width="1" fill="rgb(255,255,255)" x="284" y="544.6" width="117" height="47.4" />
  <rect stroke="rgb(0,0,0)" stroke-width="1" fill="rgb(255,255,255)" x="284" y="517.6" width="117" height="27.0" />
  <text x="25" y="487.6" font-family="Palatino Sans Informal LT Pro" font-size="9" fill="rgb(0,0,0)">Heading : Compass</text>
  <text x="25" y="475.9" font-family="Palatino Sans Informal LT Pro" font-size="9" fill="rgb(0,0,0)">Airspeed : Knots</text>
  <text x="25" y="464.20000000000005" font-family="Palatino Sans Informal LT Pro" font-size="9" fill="rgb(0,0,0)">Altitude : Altitude MSL</text>
  <text x="25" y="452.5" font-family="Palatino Sans Informal LT Pro" font-size="9" fill="rgb(0,0,0)">Tail number : ACAO {I}</text>
  <text x="58.5" y="431.0" font-family="Palatino Sans Informal LT Pro" font-size="12" fill="rgb(0,0,0)" font-weight="bold">Aircraft</text>
  <text x="289" y="582.0" font-family="Palatino Sans Informal LT Pro" font-size="9" fill="rgb(0,0,0)">Aircraft : ACAO {R1}</text>
  <text x="289" y="570.3" font-family="Palatino Sans Informal LT Pro" font-size="9" fill="rgb(0,0,0)">Hours flown : Hours</text>
  <text x="289" y="558.6" font-family="Palatino Sans Informal LT Pro" font-size="9" fill="rgb(0,0,0)">ID : Pilot ID {I}</text>
  <text x="324.5" y="537.1" font-family="Palatino Sans Informal LT Pro" font-size="12" fill="rgb(0,0,0)" font-weight="bold">Pilot</text>
  <text x="31.0" y="401.5" font-family="Palatino Sans Informal LT Pro" font-size="9" fill="rgb(0,0,0)">is flying</text>
  <text x="350.5" y="507.6" font-family="Palatino Sans Informal LT Pro" font-size="9" fill="rgb(0,0,0)">is flown by</text>
  <text x="210.75" y="366.5" font-family="Palatino Sans Informal LT Pro" font-size="9" fill="rgb(0,0,0)">R1</text>
</svg>