<svg xmlns="http://www.w3.org/2000/svg" width="792" height="612" viewBox="0 0 792 612">
  <rect width="792" height="612" fill="rgb(255,255,255)" />
  <line stroke="rgb(51,235,186)" stroke-width="1" x1="10" y1="602" x2="359" y2="602" />
  <line stroke="rgb(51,235,186)" stroke-width="1" x1="10" y1="495.9" x2="359" y2="495.9" />
  <line stroke="rgb(51,235,186)" stroke-width="1" x1="10" y1="401.5" x2="359" y2="401.5" />
  <line stroke="rgb(51,235,186)" stroke-width="1" x1="10" y1="602" x2="10" y2="20" />
  <line stroke="rgb(51,235,186)" stroke-width="1" x1="130" y1="602" x2="130" y2="20" />
  <line stroke="rgb(51,235,186)" stroke-width="1" x1="248" y1="602" x2="248" y2="20" />
  <line stroke="rgb(51,235,186)" stroke-width="1" x1="359" y1="602" x2="359" y2="20" />
  <rect stroke="rgb(125,51,235)" stroke-width="2" fill="none" x="10" y="10" width="772" height="592" />
  <text x="2" y="572" font-family="Courier New" font-size="12" fill="rgb(236,10,30)">1</text>
  <text x="2" y="465.9" font-family="Courier New" font-size="12" fill="rgb(236,10,30)">2</text>
  <text x="40" y="610" font-family="Courier New" font-size="12" fill="rgb(236,10,30)">1</text>
  <text x="160" y="610" font-family="Courier New" font-size="12" fill="rgb(236,10,30)">2</text>
  <text x="278" y="610" font-family="Courier New" font-size="12" fill="rgb(236,10,30)">3</text>
  <text x="15" y="37" font-family="Verdana" font-size="11" fill="rgb(0,64,128)" font-weight="bold">Associative Relationship</text>
  <line stroke="rgb(0,0,0)" stroke-width="1" x1="120" y1="548.95" x2="258" y2="548.95" />
  <line stroke="rgb(0,0,0)" stroke-width="1" x1="189.0" y1="485.9" x2="189.0" y2="548.95" />
  <g transform="rotate(90,120,548.95)">
    <polygon stroke="rgb(0,0,0)" stroke-width="1" fill="rgb(0,0,0)" points="117,539.95 120,548.95 123,539.95" />
    <polygon stroke="rgb(0,0,0)" stroke-width="1" fill="rgb(0,0,0)" points="117,530.95 120,539.95 123,530.95" />
  </g>
  <g transform="rotate(270,258,548.95)">
    <polygon stroke="rgb(0,0,0)" stroke-width="1" fill="rgb(255,255,255)" points="255,539.95 258,548.95 261,539.95" />
    <polygon stroke="rgb(0,0,0)" stroke-width="1" fill="rgb(255,255,255)" points="255,530.95 258,539.95 261,530.95" />
  </g>
  <g>
    <polygon stroke="rgb(0,0,0)" stroke-width="1" fill="rgb(0,0,0)" points="186.0,539.95 189.0,548.95 192.0,539.95" />
  </g>
  <rect stroke="rgb(0,0,0)" stroke-width="1" fill="rgb(255,255,255)" x="20" y="532.9" width="100" height="59.1" />
  <rect stroke="rgb(0,0,0)" stroke-width="1" fill="rgb(255,255,255)" x="20" y="505.9" width="100" height="27.0" />
  <rect stroke="rgb(0,0,0)" stroke-width="1" fill="rgb(255,255,255)" x="258" y="538.75" width="91" height="47.4" />
  <rect stroke="rgb(0,0,0)" stroke-width="1" fill="rgb(255,255,255)" x="258" y="511.75" width="91" height="27.0" />
  <rect stroke="rgb(0,0,0)" stroke-width="1" fill="rgb(255,255,255)" x="140" y="438.5" width="98" height="47.4" />
  <rect stroke="rgb(0,0,0)" stroke-width="1" fill="rgb(255,255,255)" x="140" y="411.5" width="98" height="27.0" />
  <text x="25" y="582.0" font-family="Gill Sans" font-size="9" fill="rgb(0,0,0)">Heading : Compass</text>
  <text x="25" y="570.3" font-family="Gill Sans" font-size="9" fill="rgb(0,0,0)">Airspeed : Knots</text>
  <text x="25" y="558.6" font-family="Gill Sans" font-size="9" fill="rgb(0,0,0)">Altitude : Altitude MSL</text>
  <text x="25" y="546.9" font-family="Gill Sans" font-size="9" fill="rgb(0,0,0)">Tail number : ACAO {I}</text>
  <text x="45.5" y="525.4" font-family="Gill Sans" font-size="12" fill="rgb(0,0,0)" font-weight="bold">Aircraft</text>
  <text x="263" y="576.15" font-family="Gill Sans" font-size="9" fill="rgb(0,0,0)">Aircraft : ACAO {R1}</text>
  <text x="263" y="564.45" font-family="Gill Sans" font-size="9" fill="rgb(0,0,0)">Hours flown : Hours</text>
  <text x="263" y="552.75" font-family="Gill Sans" font-size="9" fill="rgb(0,0,0)">ID : Pilot ID {I}</text>
  <text x="288.5" y="531.25" font-family="Gill Sans" font-size="12" fill="rgb(0,0,0)" font-weight="bold">Pilot</text>
  <text x="145" y="475.9" font-family="Gill Sans" font-size="9" fill="rgb(0,0,0)">Flight time : Duration</text>
  <text x="145" y="464.20000000000005" font-family="Gill Sans" font-size="9" fill="rgb(0,0,0)">Pilot : Pilot ID {I2, R1}</text>
  <text x="145" y="452.5" font-family="Gill Sans" font-size="9" fill="rgb(0,0,0)">Aircraft : ACAO {I, R1}</text>
  <text x="171.0" y="431.0" font-family="Gill Sans" font-size="12" fill="rgb(0,0,0)" font-weight="bold">Flight</text>
  <text x="130" y="540.95" font-family="Gill Sans" font-size="9" fill="rgb(0,0,0)">is flying</text>
  <text x="208" y="540.95" font-family="Gill Sans" font-size="9" fill="rgb(0,0,0)">is flown by</text>
  <text x="185.0" y="563.95" font-family="Gill Sans" font-size="9" fill="rgb(0,0,0)">R1</text>
</svg>