<svg xmlns="http://www.w3.org/2000/svg" width="792" height="612" viewBox="0 0 792 612">
  <rect width="792" height="612" fill="rgb(255,255,255)" />
  <line stroke="rgb(51,235,186)" stroke-width="1" x1="10" y1="602" x2="576" y2="602" />
  <line stroke="rgb(51,235,186)" stroke-width="1" x1="10" y1="495.9" x2="576" y2="495.9" />
  <line stroke="rgb(51,235,186)" stroke-width="1" x1="10" y1="415.9" x2="576" y2="415.9" />
  <line stroke="rgb(51,235,186)" stroke-width="1" x1="10" y1="321.5" x2="576" y2="321.5" />
  <line stroke="rgb(51,235,186)" stroke-width="1" x1="10" y1="227.10000000000002" x2="576" y2="227.10000000000002" />
  <line stroke="rgb(51,235,186)" stroke-width="1" x1="10" y1="602" x2="10" y2="20" />
  <line stroke="rgb(51,235,186)" stroke-width="1" x1="164" y1="602" x2="164" y2="20" />
  <line stroke="rgb(51,235,186)" stroke-width="1" x1="301" y1="602" x2="301" y2="20" />
  <line stroke="rgb(51,235,186)" stroke-width="1" x1="411" y1="602" x2="411" y2="20" />
  <line stroke="rgb(51,235,186)" stroke-width="1" x1="576" y1="602" x2="576" y2="20" />
  <rect stroke="rgb(125,51,235)" stroke-width="2" fill="none" x="10" y="10" width="772" height="592" />
  <text x="2" y="572" font-family="Verdana" font-size="16" fill="rgb(255,255,255)">1</text>
  <text x="2" y="465.9" font-family="Verdana" font-size="16" fill="rgb(255,255,255)">2</text>
  <text x="2" y="385.9" font-family="Verdana" font-size="16" fill="rgb(255,255,255)">3</text>
  <text x="2" y="291.5" font-family="Verdana" font-size="16" fill="rgb(255,255,255)">4</text>
  <text x="40" y="610" font-family="Verdana" font-size="16" fill="rgb(255,255,255)">1</text>
  <text x="194" y="610" font-family="Verdana" font-size="16" fill="rgb(255,255,255)">2</text>
  <text x="331" y="610" font-family="Verdana" font-size="16" fill="rgb(255,255,255)">3</text>
  <text x="441" y="610" font-family="Verdana" font-size="16" fill="rgb(255,255,255)">4</text>
  <text x="15" y="37" font-family="Eurostile BoldExtendedTwo" font-size="11" fill="rgb(0,64,128)">Associative Relationship</text>
  <line stroke="rgb(0,0,0)" stroke-width="1" x1="154" y1="548.95" x2="232.5" y2="548.95" />
  <line stroke="rgb(0,0,0)" stroke-width="1" x1="232.5" y1="548.95" x2="232.5" y2="311.5" />
  <line stroke="rgb(0,0,0)" stroke-width="1" x1="421" y1="368.7" x2="232.5" y2="368.7" />
  <g transform="rotate(90,154,548.95)">
    <polygon stroke="rgb(0,0,0)" stroke-width="1" fill="rgb(0,0,0)" points="151,539.95 154,548.95 157,539.95" />
    <polygon stroke="rgb(0,0,0)" stroke-width="1" fill="rgb(0,0,0)" points="151,530.95 154,539.95 157,530.95" />
  </g>
  <g transform="rotate(180,232.5,311.5)">
    <polygon stroke="rgb(0,0,0)" stroke-width="1" fill="rgb(255,255,255)" points="229.5,302.5 232.5,311.5 235.5,302.5" />
    <polygon stroke="rgb(0,0,0)" stroke-width="1" fill="rgb(255,255,255)" points="229.5,293.5 232.5,302.5 235.5,293.5" />
  </g>
  <g transform="rotate(90,232.5,368.7)">
    <polygon stroke="rgb(0,0,0)" stroke-width="1" fill="rgb(0,0,0)" points="229.5,359.7 232.5,368.7 235.5,359.7" />
  </g>
  <rect stroke="rgb(0,0,0)" stroke-width="1" fill="rgb(255,255,255)" x="20" y="532.9" width="134" height="59.1" />
  <rect stroke="rgb(0,0,0)" stroke-width="1" fill="rgb(255,255,255)" x="20" y="505.9" width="134" height="27.0" />
  <rect stroke="rgb(0,0,0)" stroke-width="1" fill="rgb(255,255,255)" x="174" y="264.1" width="117" height="47.4" />
  <rect stroke="rgb(0,0,0)" stroke-width="1" fill="rgb(255,255,255)" x="174" y="237.10000000000002" width="117" height="27.0" />
  <rect stroke="rgb(0,0,0)" stroke-width="1" fill="rgb(255,255,255)" x="421" y="358.5" width="145" height="47.4" />
  <rect stroke="rgb(0,0,0)" stroke-width="1" fill="rgb(255,255,255)" x="421" y="331.5" width="145" height="27.0" />
  <text x="25" y="582.0" font-family="Palatino Sans Informal LT Pro" font-size="9" fill="rgb(0,0,0)">Heading : Compass</text>
  <text x="25" y="570.3" font-family="Palatino Sans Informal LT Pro" font-size="9" fill="rgb(0,0,0)">Airspeed : Knots</text>
  <text x="25" y="558.6" font-family="Palatino Sans Informal LT Pro" font-size="9" fill="rgb(0,0,0)">Altitude : Altitude MSL</text>
  <text x="25" y="546.9" font-family="Palatino Sans Informal LT Pro" font-size="9" fill="rgb(0,0,0)">Tail number : ACAO {I}</text>
  <text x="58.5" y="525.4" font-family="Palatino Sans Informal LT Pro" font-size="12" fill="rgb(0,0,0)" font-weight="bold">Aircraft</text>
  <text x="179" y="301.5" font-family="Palatino Sans Informal LT Pro" font-size="9" fill="rgb(0,0,0)">Aircraft : ACAO {R1}</text>
  <text x="179" y="289.8" font-family="Palatino Sans Informal LT Pro" font-size="9" fill="rgb(0,0,0)">Hours flown : Hours</text>
  <text x="179" y="278.1" font-family="Palatino Sans Informal LT Pro" font-size="9" fill="rgb(0,0,0)">ID : Pilot ID {I}</text>
  <text x="214.5" y="256.6" font-family="Palatino Sans Informal LT Pro" font-size="12" fill="rgb(0,0,0)" font-weight="bold">Pilot</text>
  <text x="426" y="395.9" font-family="Palatino Sans Informal LT Pro" font-size="9" fill="rgb(0,0,0)">Flight time : Duration</text>
  <text x="426" y="384.20000000000005" font-family="Palatino Sans Informal LT Pro" font-size="9" fill="rgb(0,0,0)">Pilot : Pilot ID {I2, R1}</text>
  <text x="426" y="372.5" font-family="Palatino Sans Informal LT Pro" font-size="9" fill="rgb(0,0,0)">Aircraft : ACAO {I, R1}</text>
  <text x="472.0" y="351.0" font-family="Palatino Sans Informal LT Pro" font-size="12" fill="rgb(0,0,0)" font-weight="bold">Flight</text>
  <text x="164" y="540.95" font-family="Palatino Sans Informal LT Pro" font-size="9" fill="rgb(0,0,0)">is flying</text>
  <text x="240.5" y="330.5" font-family="Palatino Sans Informal LT Pro" font-size="9" fill="rgb(0,0,0)">is flown by</text>
  <text x="216.5" y="434.225" font-family="Palatino Sans Informal LT Pro" font-size="9" fill="rgb(0,0,0)">R1</text>
</svg>