<svg xmlns="http://www.w3.org/2000/svg" width="792" height="612" viewBox="0 0 792 612">
  <rect width="792" height="612" fill="rgb(255,255,255)" />
  <line stroke="rgb(51,235,186)" stroke-width="1" x1="10" y1="602" x2="469" y2="602" />
  <line stroke="rgb(51,235,186)" stroke-width="1" x1="10" y1="507.6" x2="469" y2="507.6" />
  <line stroke="rgb(51,235,186)" stroke-width="1" x1="10" y1="427.6" x2="469" y2="427.6" />
  <line stroke="rgb(51,235,186)" stroke-width="1" x1="10" y1="321.5" x2="469" y2="321.5" />
  <line stroke="rgb(51,235,186)" stroke-width="1" x1="10" y1="227.10000000000002" x2="469" y2="227.10000000000002" />
  <line stroke="rgb(51,235,186)" stroke-width="1" x1="10" y1="602" x2="10" y2="20" />
  <line stroke="rgb(51,235,186)" stroke-width="1" x1="130" y1="602" x2="130" y2="20" />
  <line stroke="rgb(51,235,186)" stroke-width="1" x1="240" y1="602" x2="240" y2="20" />
  <line stroke="rgb(51,235,186)" stroke-width="1" x1="358" y1="602" x2="358" y2="20" />
  <line stroke="rgb(51,235,186)" stroke-width="1" x1="469" y1="602" x2="469" y2="20" />
  <rect stroke="rgb(125,51,235)" stroke-width="2" fill="none" x="10" y="10" width="772" height="592" />
  <text x="2" y="572" font-family="Courier New" font-size="12" fill="rgb(236,10,30)">1</text>
  <text x="2" y="477.6" font-family="Courier New" font-size="12" fill="rgb(236,10,30)">2</text>
  <text x="2" y="397.6" font-family="Courier New" font-size="12" fill="rgb(236,10,30)">3</text>
  <text x="2" y="291.5" font-family="Courier New" font-size="12" fill="rgb(236,10,30)">4</text>
  <text x="40" y="610" font-family="Courier New" font-size="12" fill="rgb(236,10,30)">1</text>
  <text x="160" y="610" font-family="Courier New" font-size="12" fill="rgb(236,10,30)">2</text>
  <text x="270" y="610" font-family="Courier New" font-size="12" fill="rgb(236,10,30)">3</text>
  <text x="388" y="610" font-family="Courier New" font-size="12" fill="rgb(236,10,30)">4</text>
  <text x="15" y="37" font-family="Verdana" font-size="11" fill="rgb(0,64,128)" font-weight="bold">Associative Relationship</text>
  <line stroke="rgb(0,0,0)" stroke-width="1" x1="120" y1="374.55" x2="185.0" y2="374.55" />
  <line stroke="rgb(0,0,0)" stroke-width="1" x1="185.0" y1="374.55" x2="185.0" y2="467.6" />
  <line stroke="rgb(0,0,0)" stroke-width="1" x1="185.0" y1="467.6" x2="318.6666666666667" y2="467.6" />
  <line stroke="rgb(0,0,0)" stroke-width="1" x1="318.6666666666667" y1="467.6" x2="318.6666666666667" y2="554.8" />
  <line stroke="rgb(0,0,0)" stroke-width="1" x1="318.6666666666667" y1="554.8" x2="368" y2="554.8" />
  <line stroke="rgb(0,0,0)" stroke-width="1" x1="299.0" y1="311.5" x2="299.0" y2="467.6" />
  <g transform="rotate(90,120,374.55)">
    <polygon stroke="rgb(0,0,0)" stroke-width="1" fill="rgb(0,0,0)" points="117,365.55 120,374.55 123,365.55" />
    <polygon stroke="rgb(0,0,0)" stroke-width="1" fill="rgb(0,0,0)" points="117,356.55 120,365.55 123,356.55" />
  </g>
  <g transform="rotate(270,368,554.8)">
    <polygon stroke="rgb(0,0,0)" stroke-width="1" fill="rgb(255,255,255)" points="365,545.8 368,554.8 371,545.8" />
    <polygon stroke="rgb(0,0,0)" stroke-width="1" fill="rgb(255,255,255)" points="365,536.8 368,545.8 371,536.8" />
  </g>
  <g>
    <polygon stroke="rgb(0,0,0)" stroke-width="1" fill="rgb(0,0,0)" points="296.0,458.6 299.0,467.6 302.0,458.6" />
  </g>
  <rect stroke="rgb(0,0,0)" stroke-width="1" fill="rgb(255,255,255)" x="20" y="358.5" width="100" height="59.1" />
  <rect stroke="rgb(0,0,0)" stroke-width="1" fill="rgb(255,255,255)" x="20" y="331.5" width="100" height="27.0" />
  <rect stroke="rgb(0,0,0)" stroke-width="1" fill="rgb(255,255,255)" x="368" y="544.6" width="91" height="47.4" />
  <rect stroke="rgb(0,0,0)" stroke-width="1" fill="rgb(255,255,255)" x="368" y="517.6" width="91" height="27.0" />
  <rect stroke="rgb(0,0,0)" stroke-width="1" fill="rgb(255,255,255)" x="250" y="264.1" width="98" height="47.4" />
  <rect stroke="rgb(0,0,0)" stroke-width="1" fill="rgb(255,255,255)" x="250" y="237.10000000000002" width="98" height="27.0" />
  <text x="25" y="407.6" font-family="Gill Sans" font-size="9" fill="rgb(0,0,0)">Heading : Compass</text>
  <text x="25" y="395.9" font-family="Gill Sans" font-size="9" fill="rgb(0,0,0)">Airspeed : Knots</text>
  <text x="25" y="384.20000000000005" font-family="Gill Sans" font-size="9" fill="rgb(0,0,0)">Altitude : Altitude MSL</text>
  <text x="25" y="372.5" font-family="Gill Sans" font-size="9" fill="rgb(0,0,0)">Tail number : ACAO {I}</text>
  <text x="45.5" y="351.0" font-family="Gill Sans" font-size="12" fill="rgb(0,0,0)" font-weight="bold">Aircraft</text>
  <text x="373" y="582.0" font-family="Gill Sans" font-size="9" fill="rgb(0,0,0)">Aircraft : ACAO {R1}</text>
  <text x="373" y="570.3" font-family="Gill Sans" font-size="9" fill="rgb(0,0,0)">Hours flown : Hours</text>
  <text x="373" y="558.6" font-family="Gill Sans" font-size="9" fill="rgb(0,0,0)">ID : Pilot ID {I}</text>
  <text x="398.5" y="537.1" font-family="Gill Sans" font-size="12" fill="rgb(0,0,0)" font-weight="bold">Pilot</text>
  <text x="255" y="301.5" font-family="Gill Sans" font-size="9" fill="rgb(0,0,0)">Flight time : Duration</text>
  <text x="255" y="289.8" font-family="Gill Sans" font-size="9" fill="rgb(0,0,0)">Pilot : Pilot ID {I2, R1}</text>
  <text x="255" y="278.1" font-family="Gill Sans" font-size="9" fill="rgb(0,0,0)">Aircraft : ACAO {I, R1}</text>
  <text x="281.0" y="256.6" font-family="Gill Sans" font-size="12" fill="rgb(0,0,0)" font-weight="bold">Flight</text>
  <text x="130" y="366.55" font-family="Gill Sans" font-size="9" fill="rgb(0,0,0)">is flying</text>
  <text x="318" y="571.8" font-family="Gill Sans" font-size="9" fill="rgb(0,0,0)">is flown by</text>
  <text x="247.83333333333334" y="482.6" font-family="Gill Sans" font-size="9" fill="rgb(0,0,0)">R1</text>
</svg>