<svg xmlns="http://www.w3.org/2000/svg" width="792" height="612" viewBox="0 0 792 612">
  <rect width="792" height="612" fill="rgb(255,255,255)" />
  <line stroke="rgb(51,235,186)" stroke-width="1" x1="10" y1="602" x2="549" y2="602" />
  <line stroke="rgb(51,235,186)" stroke-width="1" x1="10" y1="495.9" x2="549" y2="495.9" />
  <line stroke="rgb(51,235,186)" stroke-width="1" x1="10" y1="401.5" x2="549" y2="401.5" />
  <line stroke="rgb(51,235,186)" stroke-width="1" x1="10" y1="307.1" x2="549" y2="307.1" />
  <line stroke="rgb(51,235,186)" stroke-width="1" x1="10" y1="602" x2="10" y2="20" />
  <line stroke="rgb(51,235,186)" stroke-width="1" x1="164" y1="602" x2="164" y2="20" />
  <line stroke="rgb(51,235,186)" stroke-width="1" x1="274" y1="602" x2="274" y2="20" />
  <line stroke="rgb(51,235,186)" stroke-width="1" x1="384" y1="602" x2="384" y2="20" />
  <line stroke="rgb(51,235,186)" stroke-width="1" x1="549" y1="602" x2="549" y2="20" />
  <rect stroke="rgb(125,51,235)" stroke-width="2" fill="none" x="10" y="10" width="772" height="592" />
  <text x="2" y="572" font-family="Verdana" font-size="16" fill="rgb(255,255,255)">1</text>
  <text x="2" y="465.9" font-family="Verdana" font-size="16" fill="rgb(255,255,255)">2</text>
  <text x="2" y="371.5" font-family="Verdana" font-size="16" fill="rgb(255,255,255)">3</text>
  <text x="40" y="610" font-family="Verdana" font-size="16" fill="rgb(255,255,255)">1</text>
  <text x="194" y="610" font-family="Verdana" font-size="16" fill="rgb(255,255,255)">2</text>
  <text x="304" y="610" font-family="Verdana" font-size="16" fill="rgb(255,255,255)">3</text>
  <text x="414" y="610" font-family="Verdana" font-size="16" fill="rgb(255,255,255)">4</text>
  <text x="15" y="37" font-family="Eurostile BoldExtendedTwo" font-size="11" fill="rgb(0,64,128)">Associative Relationship</text>
  <line stroke="rgb(0,0,0)" stroke-width="1" x1="87.0" y1="505.9" x2="87.0" y2="354.3" />
  <line stroke="rgb(0,0,0)" stroke-width="1" x1="87.0" y1="354.3" x2="329.0" y2="354.3" />
  <line stroke="rgb(0,0,0)" stroke-width="1" x1="329.0" y1="354.3" x2="329.0" y2="448.7" />
  <line stroke="rgb(0,0,0)" stroke-width="1" x1="329.0" y1="448.7" x2="388.0" y2="448.7" />
  <line stroke="rgb(0,0,0)" stroke-width="1" x1="388.0" y1="448.7" x2="408.0" y2="448.7" />
  <line stroke="rgb(0,0,0)" stroke-width="1" x1="394" y1="354.3" x2="329.0" y2="354.3" />
  <g>
    <polygon stroke="rgb(0,0,0)" stroke-width="1" fill="rgb(0,0,0)" points="84.0,496.9 87.0,505.9 90.0,496.9" />
    <polygon stroke="rgb(0,0,0)" stroke-width="1" fill="rgb(0,0,0)" points="84.0,487.9 87.0,496.9 90.0,487.9" />
  </g>
  <g transform="rotate(270,408.0,448.7)">
    <polygon stroke="rgb(0,0,0)" stroke-width="1" fill="rgb(255,255,255)" points="405.0,439.7 408.0,448.7 411.0,439.7" />
    <polygon stroke="rgb(0,0,0)" stroke-width="1" fill="rgb(255,255,255)" points="405.0,430.7 408.0,439.7 411.0,430.7" />
  </g>
  <g transform="rotate(90,329.0,354.3)">
    <polygon stroke="rgb(0,0,0)" stroke-width="1" fill="rgb(0,0,0)" points="326.0,345.3 329.0,354.3 332.0,345.3" />
  </g>
  <rect stroke="rgb(0,0,0)" stroke-width="1" fill="rgb(255,255,255)" x="20" y="532.9" width="134" height="59.1" />
  <rect stroke="rgb(0,0,0)" stroke-width="1" fill="rgb(255,255,255)" x="20" y="505.9" width="134" height="27.0" />
  <rect stroke="rgb(0,0,0)" stroke-width="1" fill="rgb(255,255,255)" x="408.0" y="438.5" width="117" height="47.4" />
  <rect stroke="rgb(0,0,0)" stroke-width="1" fill="rgb(255,255,255)" x="408.0" y="411.5" width="117" height="27.0" />
  <rect stroke="rgb(0,0,0)" stroke-width="1" fill="rgb(255,255,255)" x="394" y="344.1" width="145" height="47.4" />
  <rect stroke="rgb(0,0,0)" stroke-width="1" fill="rgb(255,255,255)" x="394" y="317.1" width="145" height="27.0" />
  <text x="25" y="582.0" font-family="Palatino Sans Informal LT Pro" font-size="9" fill="rgb(0,0,0)">Heading : Compass</text>
  <text x="25" y="570.3" font-family="Palatino Sans Informal LT Pro" font-size="9" fill="rgb(0,0,0)">Airspeed : Knots</text>
  <text x="25" y="558.6" font-family="Palatino Sans Informal LT Pro" font-size="9" fill="rgb(0,0,0)">Altitude : Altitude MSL</text>
  <text x="25" y="546.9" font-family="Palatino Sans Informal LT Pro" font-size="9" fill="rgb(0,0,0)">Tail number : ACAO {I}</text>
  <text x="58.5" y="525.4" font-family="Palatino Sans Informal LT Pro" font-size="12" fill="rgb(0,0,0)" font-weight="bold">Aircraft</text>
  <text x="413.0" y="475.9" font-family="Palatino Sans Informal LT Pro" font-size="9" fill="rgb(0,0,0)">Aircraft : ACAO {R1}</text>
  <text x="413.0" y="464.20000000000005" font-family="Palatino Sans Informal LT Pro" font-size="9" fill="rgb(0,0,0)">Hours flown : Hours</text>
  <text x="413.0" y="452.5" font-family="Palatino Sans Informal LT Pro" font-size="9" fill="rgb(0,0,0)">ID : Pilot ID {I}</text>
  <text x="448.5" y="431.0" font-family="Palatino Sans Informal LT Pro" font-size="12" fill="rgb(0,0,0)" font-weight="bold">Pilot</text>
  <text x="399" y="381.5" font-family="Palatino Sans Informal LT Pro" font-size="9" fill="rgb(0,0,0)">Flight time : Duration</text>
  <text x="399" y="369.80000000000007" font-family="Palatino Sans Informal LT Pro" font-size="9" fill="rgb(0,0,0)">Pilot : Pilot ID {I2, R1}</text>
  <text x="399" y="358.1" font-family="Palatino Sans Informal LT Pro" font-size="9" fill="rgb(0,0,0)">Aircraft : ACAO {I, R1}</text>
  <text x="445.0" y="336.6" font-family="Palatino Sans Informal LT Pro" font-size="12" fill="rgb(0,0,0)" font-weight="bold">Flight</text>
  <text x="95.0" y="495.9" font-family="Palatino Sans Informal LT Pro" font-size="9" fill="rgb(0,0,0)">is flying</text>
  <text x="339.0" y="465.7" font-family="Palatino Sans Informal LT Pro" font-size="9" fill="rgb(0,0,0)">is flown by</text>
  <text x="204.0" y="348.3" font-family="Palatino Sans Informal LT Pro" font-size="9" fill="rgb(0,0,0)">R1</text>
</svg>