<svg xmlns="http://www.w3.org/2000/svg" width="792" height="612" viewBox="0 0 792 612">
  <rect width="792" height="612" fill="rgb(255,255,255)" />
  <line stroke="rgb(51,235,186)" stroke-width="1" x1="10" y1="602" x2="342" y2="602" />
  <line stroke="rgb(51,235,186)" stroke-width="1" x1="10" y1="507.6" x2="342" y2="507.6" />
  <line stroke="rgb(51,235,186)" stroke-width="1" x1="10" y1="427.6" x2="342" y2="427.6" />
  <line stroke="rgb(51,235,186)" stroke-width="1" x1="10" y1="321.5" x2="342" y2="321.5" />
  <line stroke="rgb(51,235,186)" stroke-width="1" x1="10" y1="602" x2="10" y2="20" />
  <line stroke="rgb(51,235,186)" stroke-width="1" x1="120" y1="602" x2="120" y2="20" />
  <line stroke="rgb(51,235,186)" stroke-width="1" x1="240" y1="602" x2="240" y2="20" />
  <line stroke="rgb(51,235,186)" stroke-width="1" x1="342" y1="602" x2="342" y2="20" />
  <rect stroke="rgb(125,51,235)" stroke-width="2" fill="none" x="10" y="10" width="772" height="592" />
  <text x="2" y="572" font-family="Courier New" font-size="12" fill="rgb(236,10,30)">1</text>
  <text x="2" y="477.6" font-family="Courier New" font-size="12" fill="rgb(236,10,30)">2</text>
  <text x="2" y="397.6" font-family="Courier New" font-size="12" fill="rgb(236,10,30)">3</text>
  <text x="40" y="610" font-family="Courier New" font-size="12" fill="rgb(236,10,30)">1</text>
  <text x="150" y="610" font-family="Courier New" font-size="12" fill="rgb(236,10,30)">2</text>
  <text x="270" y="610" font-family="Courier New" font-size="12" fill="rgb(236,10,30)">3</text>
  <text x="15" y="37" font-family="Verdana" font-size="11" fill="rgb(0,64,128)" font-weight="bold">Two Subclasses</text>
  <line stroke="rgb(0,0,0)" stroke-width="1" x1="65.0" y1="467.6" x2="304.6666666666667" y2="467.6" />
  <line stroke="rgb(0,0,0)" stroke-width="1" x1="180.0" y1="417.6" x2="180.0" y2="467.6" />
  <line stroke="rgb(0,0,0)" stroke-width="1" x1="304.6666666666667" y1="517.6" x2="304.6666666666667" y2="467.6" />
  <line stroke="rgb(0,0,0)" stroke-width="1" x1="65.0" y1="517.6" x2="65.0" y2="467.6" />
  <g transform="rotate(180,180.0,417.6)">
    <polygon stroke="rgb(0,0,0)" stroke-width="1" fill="rgb(255,255,255)" points="172.0,405.6 180.0,417.6 188.0,405.6" />
  </g>
  <rect stroke="rgb(0,0,0)" stroke-width="1" fill="rgb(255,255,255)" x="130" y="358.5" width="100" height="59.1" />
  <rect stroke="rgb(0,0,0)" stroke-width="1" fill="rgb(255,255,255)" x="130" y="331.5" width="100" height="27.0" />
  <rect stroke="rgb(0,0,0)" stroke-width="1" fill="rgb(255,255,255)" x="22.5" y="544.6" width="85" height="47.4" />
  <rect stroke="rgb(0,0,0)" stroke-width="1" fill="rgb(255,255,255)" x="22.5" y="517.6" width="85" height="27.0" />
  <rect stroke="rgb(0,0,0)" stroke-width="1" fill="rgb(255,255,255)" x="250" y="544.6" width="82" height="47.4" />
  <rect stroke="rgb(0,0,0)" stroke-width="1" fill="rgb(255,255,255)" x="250" y="517.6" width="82" height="27.0" />
  <rect x="184.0" y="435.6" width="15" height="14" fill="rgb(255,255,255)" stroke="none" />
  <text x="135" y="407.6" font-family="Gill Sans" font-size="9" fill="rgb(0,0,0)">Heading : Compass</text>
  <text x="135" y="395.9" font-family="Gill Sans" font-size="9" fill="rgb(0,0,0)">Airspeed : Knots</text>
  <text x="135" y="384.20000000000005" font-family="Gill Sans" font-size="9" fill="rgb(0,0,0)">Altitude : Altitude MSL</text>
  <text x="135" y="372.5" font-family="Gill Sans" font-size="9" fill="rgb(0,0,0)">Tail number : ACAO {I}</text>
  <text x="155.5" y="351.0" font-family="Gill Sans" font-size="12" fill="rgb(0,0,0)" font-weight="bold">Aircraft</text>
  <text x="27.5" y="582.0" font-family="Gill Sans" font-size="9" fill="rgb(0,0,0)">Landing pad {R4}</text>
  <text x="27.5" y="570.3" font-family="Gill Sans" font-size="9" fill="rgb(0,0,0)">Landing gear : Gear</text>
  <text x="27.5" y="558.6" font-family="Gill Sans" font-size="9" fill="rgb(0,0,0)">Tail number {I, R1}</text>
  <text x="31.5" y="537.1" font-family="Gill Sans" font-size="12" fill="rgb(0,0,0)" font-weight="bold">Helicopter</text>
  <text x="255" y="582.0" font-family="Gill Sans" font-size="9" fill="rgb(0,0,0)">Runway {R5}</text>
  <text x="255" y="570.3" font-family="Gill Sans" font-size="9" fill="rgb(0,0,0)">Weight : Category</text>
  <text x="255" y="558.6" font-family="Gill Sans" font-size="9" fill="rgb(0,0,0)">Tail number {I, R1}</text>
  <text x="256.0" y="537.1" font-family="Gill Sans" font-size="12" fill="rgb(0,0,0)" font-weight="bold">Fixed Wing</text>
  <text x="186.0" y="446.6" font-family="Gill Sans" font-size="9" fill="rgb(0,0,0)">R1</text>
</svg>