<svg xmlns="http://www.w3.org/2000/svg" width="792" height="612" viewBox="0 0 792 612">
  <rect width="792" height="612" fill="rgb(255,255,255)" />
  <line stroke="rgb(51,235,186)" stroke-width="1" x1="10" y1="602" x2="455" y2="602" />
  <line stroke="rgb(51,235,186)" stroke-width="1" x1="10" y1="507.6" x2="455" y2="507.6" />
  <line stroke="rgb(51,235,186)" stroke-width="1" x1="10" y1="401.5" x2="455" y2="401.5" />
  <line stroke="rgb(51,235,186)" stroke-width="1" x1="10" y1="307.1" x2="455" y2="307.1" />
  <line stroke="rgb(51,235,186)" stroke-width="1" x1="10" y1="602" x2="10" y2="20" />
  <line stroke="rgb(51,235,186)" stroke-width="1" x1="130" y1="602" x2="130" y2="20" />
  <line stroke="rgb(51,235,186)" stroke-width="1" x1="240" y1="602" x2="240" y2="20" />
  <line stroke="rgb(51,235,186)" stroke-width="1" x1="350" y1="602" x2="350" y2="20" />
  <line stroke="rgb(51,235,186)" stroke-width="1" x1="455" y1="602" x2="455" y2="20" />
  <rect stroke="rgb(125,51,235)" stroke-width="2" fill="none" x="10" y="10" width="772" height="592" />
  <text x="2" y="572" font-family="Courier New" font-size="12" fill="rgb(236,10,30)">1</text>
  <text x="2" y="477.6" font-family="Courier New" font-size="12" fill="rgb(236,10,30)">2</text>
  <text x="2" y="371.5" font-family="Courier New" font-size="12" fill="rgb(236,10,30)">3</text>
  <text x="40" y="610" font-family="Courier New" font-size="12" fill="rgb(236,10,30)">1</text>
  <text x="160" y="610" font-family="Courier New" font-size="12" fill="rgb(236,10,30)">2</text>
  <text x="270" y="610" font-family="Courier New" font-size="12" fill="rgb(236,10,30)">3</text>
  <text x="380" y="610" font-family="Courier New" font-size="12" fill="rgb(236,10,30)">4</text>
  <text x="15" y="37" font-family="Verdana" font-size="11" fill="rgb(0,64,128)" font-weight="bold">Two Subclasses</text>
  <line stroke="rgb(0,0,0)" stroke-width="1" x1="313.3333333333333" y1="554.8" x2="313.3333333333333" y2="354.3" />
  <line stroke="rgb(0,0,0)" stroke-width="1" x1="120" y1="454.55" x2="313.3333333333333" y2="454.55" />
  <line stroke="rgb(0,0,0)" stroke-width="1" x1="360" y1="354.3" x2="313.3333333333333" y2="354.3" />
  <line stroke="rgb(0,0,0)" stroke-width="1" x1="361.5" y1="554.8" x2="313.3333333333333" y2="554.8" />
  <g transform="rotate(90,120,454.55)">
    <polygon stroke="rgb(0,0,0)" stroke-width="1" fill="rgb(255,255,255)" points="112,442.55 120,454.55 128,442.55" />
  </g>
  <rect stroke="rgb(0,0,0)" stroke-width="1" fill="rgb(255,255,255)" x="20" y="438.5" width="100" height="59.1" />
  <rect stroke="rgb(0,0,0)" stroke-width="1" fill="rgb(255,255,255)" x="20" y="411.5" width="100" height="27.0" />
  <rect stroke="rgb(0,0,0)" stroke-width="1" fill="rgb(255,255,255)" x="360" y="344.1" width="85" height="47.4" />
  <rect stroke="rgb(0,0,0)" stroke-width="1" fill="rgb(255,255,255)" x="360" y="317.1" width="85" height="27.0" />
  <rect stroke="rgb(0,0,0)" stroke-width="1" fill="rgb(255,255,255)" x="361.5" y="544.6" width="82" height="47.4" />
  <rect stroke="rgb(0,0,0)" stroke-width="1" fill="rgb(255,255,255)" x="361.5" y="517.6" width="82" height="27.0" />
  <rect x="138" y="458.55" width="15" height="14" fill="rgb(255,255,255)" stroke="none" />
  <text x="25" y="487.6" font-family="Gill Sans" font-size="9" fill="rgb(0,0,0)">Heading : Compass</text>
  <text x="25" y="475.9" font-family="Gill Sans" font-size="9" fill="rgb(0,0,0)">Airspeed : Knots</text>
  <text x="25" y="464.20000000000005" font-family="Gill Sans" font-size="9" fill="rgb(0,0,0)">Altitude : Altitude MSL</text>
  <text x="25" y="452.5" font-family="Gill Sans" font-size="9" fill="rgb(0,0,0)">Tail number : ACAO {I}</text>
  <text x="45.5" y="431.0" font-family="Gill Sans" font-size="12" fill="rgb(0,0,0)" font-weight="bold">Aircraft</text>
  <text x="365" y="381.5" font-family="Gill Sans" font-size="9" fill="rgb(0,0,0)">Landing pad {R4}</text>
  <text x="365" y="369.80000000000007" font-family="Gill Sans" font-size="9" fill="rgb(0,0,0)">Landing gear : Gear</text>
  <text x="365" y="358.1" font-family="Gill Sans" font-size="9" fill="rgb(0,0,0)">Tail number {I, R1}</text>
  <text x="369.0" y="336.6" font-family="Gill Sans" font-size="12" fill="rgb(0,0,0)" font-weight="bold">Helicopter</text>
  <text x="366.5" y="582.0" font-family="Gill Sans" font-size="9" fill="rgb(0,0,0)">Runway {R5}</text>
  <text x="366.5" y="570.3" font-family="Gill Sans" font-size="9" fill="rgb(0,0,0)">Weight : Category</text>
  <text x="366.5" y="558.6" font-family="Gill Sans" font-size="9" fill="rgb(0,0,0)">Tail number {I, R1}</text>
  <text x="367.5" y="537.1" font-family="Gill Sans" font-size="12" fill="rgb(0,0,0)" font-weight="bold">Fixed Wing</text>
  <text x="140" y="469.55" font-family="Gill Sans" font-size="9" fill="rgb(0,0,0)">R1</text>
</svg>