<svg xmlns="http://www.w3.org/2000/svg" width="792" height="612" viewBox="0 0 792 612">
  <rect width="792" height="612" fill="rgb(255,255,255)" />
  <line stroke="rgb(51,235,186)" stroke-width="1" x1="10" y1="602" x2="230.0" y2="602" />
  <line stroke="rgb(51,235,186)" stroke-width="1" x1="10" y1="502" x2="230.0" y2="502" />
  <line stroke="rgb(51,235,186)" stroke-width="1" x1="10" y1="402" x2="230.0" y2="402" />
  <line stroke="rgb(51,235,186)" stroke-width="1" x1="10" y1="602" x2="10" y2="20" />
  <line stroke="rgb(51,235,186)" stroke-width="1" x1="230.0" y1="602" x2="230.0" y2="20" />
  <rect stroke="rgb(125,51,235)" stroke-width="2" fill="none" x="10" y="10" width="772" height="592" />
  <text x="2" y="572" font-family="Courier New" font-size="12" fill="rgb(236,10,30)">1</text>
  <text x="2" y="472" font-family="Courier New" font-size="12" fill="rgb(236,10,30)">2</text>
  <text x="40" y="610" font-family="Courier New" font-size="12" fill="rgb(236,10,30)">1</text>
  <text x="15" y="37" font-family="Verdana" font-size="11" fill="rgb(0,64,128)" font-weight="bold">Fat Class</text>
  <rect stroke="rgb(0,0,0)" stroke-width="1" fill="rgb(255,255,255)" x="20" y="456.69999999999993" width="200" height="117.60000000000001" />
  <rect stroke="rgb(0,0,0)" stroke-width="1" fill="rgb(255,255,255)" x="20" y="429.7" width="200" height="27.0" />
  <text x="25" y="564.3" font-family="Gill Sans" font-size="9" fill="rgb(0,0,0)">Presentation style : Presentation Style Name {R26}</text>
  <text x="25" y="552.6" font-family="Gill Sans" font-size="9" fill="rgb(0,0,0)">Origin : Position</text>
  <text x="25" y="540.9" font-family="Gill Sans" font-size="9" fill="rgb(0,0,0)">Size : Rect Size</text>
  <text x="25" y="529.2" font-family="Gill Sans" font-size="9" fill="rgb(0,0,0)">Some really long attribute : Long Data Type</text>
  <text x="25" y="517.5" font-family="Gill Sans" font-size="9" fill="rgb(0,0,0)">Canvas : Canvas ID {R14}</text>
  <text x="25" y="505.79999999999995" font-family="Gill Sans" font-size="9" fill="rgb(0,0,0)">Notation : Notation Name {R30}</text>
  <text x="25" y="494.09999999999997" font-family="Gill Sans" font-size="9" fill="rgb(0,0,0)">Type : Type Name {R11, R30}</text>
  <text x="25" y="482.4" font-family="Gill Sans" font-size="9" fill="rgb(0,0,0)">Grid : Grid ID {R10}</text>
  <text x="25" y="470.7" font-family="Gill Sans" font-size="9" fill="rgb(0,0,0)">ID : Nominal {I}</text>
  <text x="93.5" y="449.2" font-family="Gill Sans" font-size="12" fill="rgb(0,0,0)" font-weight="bold">Diagram</text>
</svg>