<svg xmlns="http://www.w3.org/2000/svg" width="792" height="612" viewBox="0 0 792 612">
  <rect width="792" height="612" fill="rgb(255,255,255)" />
  <line stroke="rgb(51,235,186)" stroke-width="1" x1="10" y1="602" x2="314" y2="602" />
  <line stroke="rgb(51,235,186)" stroke-width="1" x1="10" y1="495.9" x2="314" y2="495.9" />
  <line stroke="rgb(51,235,186)" stroke-width="1" x1="10" y1="415.9" x2="314" y2="415.9" />
  <line stroke="rgb(51,235,186)" stroke-width="1" x1="10" y1="321.5" x2="314" y2="321.5" />
  <line stroke="rgb(51,235,186)" stroke-width="1" x1="10" y1="602" x2="10" y2="20" />
  <line stroke="rgb(51,235,186)" stroke-width="1" x1="164" y1="602" x2="164" y2="20" />
  <line stroke="rgb(51,235,186)" stroke-width="1" x1="314" y1="602" x2="314" y2="20" />
  <rect stroke="rgb(125,51,235)" stroke-width="2" fill="none" x="10" y="10" width="772" height="592" />
  <text x="2" y="572" font-family="Verdana" font-size="16" fill="rgb(255,255,255)">1</text>
  <text x="2" y="465.9" font-family="Verdana" font-size="16" fill="rgb(255,255,255)">2</text>
  <text x="2" y="385.9" font-family="Verdana" font-size="16" fill="rgb(255,255,255)">3</text>
  <text x="40" y="610" font-family="Verdana" font-size="16" fill="rgb(255,255,255)">1</text>
  <text x="194" y="610" font-family="Verdana" font-size="16" fill="rgb(255,255,255)">2</text>
  <text x="15" y="37" font-family="Eurostile BoldExtendedTwo" font-size="11" fill="rgb(0,64,128)">Binary Association</text>
  <line stroke="rgb(0,0,0)" stroke-width="1" x1="154" y1="548.95" x2="239.0" y2="548.95" />
  <line stroke="rgb(0,0,0)" stroke-width="1" x1="239.0" y1="548.95" x2="239.0" y2="368.7" />
  <line stroke="rgb(0,0,0)" stroke-width="1" x1="239.0" y1="368.7" x2="145.5" y2="368.7" />
  <rect stroke="rgb(0,0,0)" stroke-width="1" fill="rgb(255,255,255)" x="20" y="532.9" width="134" height="59.1" />
  <rect stroke="rgb(0,0,0)" stroke-width="1" fill="rgb(255,255,255)" x="20" y="505.9" width="134" height="27.0" />
  <rect stroke="rgb(0,0,0)" stroke-width="1" fill="rgb(255,255,255)" x="28.5" y="358.5" width="117" height="47.4" />
  <rect stroke="rgb(0,0,0)" stroke-width="1" fill="rgb(255,255,255)" x="28.5" y="331.5" width="117" height="27.0" />
  <rect x="158" y="552.95" width="53" height="14" fill="rgb(255,255,255)" stroke="none" />
  <rect x="158" y="531.95" width="10" height="14" fill="rgb(255,255,255)" stroke="none" />
  <rect x="149.5" y="351.7" width="64" height="14" fill="rgb(255,255,255)" stroke="none" />
  <rect x="149.5" y="372.7" width="10" height="14" fill="rgb(255,255,255)" stroke="none" />
  <text x="25" y="582.0" font-family="Palatino Sans Informal LT Pro" font-size="9" fill="rgb(0,0,0)">Heading : Compass</text>
  <text x="25" y="570.3" font-family="Palatino Sans Informal LT Pro" font-size="9" fill="rgb(0,0,0)">Airspeed : Knots</text>
  <text x="25" y="558.6" font-family="Palatino Sans Informal LT Pro" font-size="9" fill="rgb(0,0,0)">Altitude : Altitude MSL</text>
  <text x="25" y="546.9" font-family="Palatino Sans Informal LT Pro" font-size="9" fill="rgb(0,0,0)">Tail number : ACAO {I}</text>
  <text x="58.5" y="525.4" font-family="Palatino Sans Informal LT Pro" font-size="12" fill="rgb(0,0,0)" font-weight="bold">Aircraft</text>
  <text x="33.5" y="395.9" font-family="Palatino Sans Informal LT Pro" font-size="9" fill="rgb(0,0,0)">Aircraft : ACAO {R1}</text>
  <text x="33.5" y="384.20000000000005" font-family="Palatino Sans Informal LT Pro" font-size="9" fill="rgb(0,0,0)">Hours flown : Hours</text>
  <text x="33.5" y="372.5" font-family="Palatino Sans Informal LT Pro" font-size="9" fill="rgb(0,0,0)">ID : Pilot ID {I}</text>
  <text x="69.0" y="351.0" font-family="Palatino Sans Informal LT Pro" font-size="12" fill="rgb(0,0,0)" font-weight="bold">Pilot</text>
  <text x="160" y="563.95" font-family="Palatino Sans Informal LT Pro" font-size="9" fill="rgb(0,0,0)">is flying</text>
  <text x="160" y="542.95" font-family="Palatino Sans Informal LT Pro" font-size="9" fill="rgb(0,0,0)">1</text>
  <text x="151.5" y="362.7" font-family="Palatino Sans Informal LT Pro" font-size="9" fill="rgb(0,0,0)">is flown by</text>
  <text x="151.5" y="383.7" font-family="Palatino Sans Informal LT Pro" font-size="9" fill="rgb(0,0,0)">1</text>
  <text x="245.0" y="462.825" font-family="Palatino Sans Informal LT Pro" font-size="9" fill="rgb(0,0,0)">R1</text>
</svg>