<svg xmlns="http://www.w3.org/2000/svg" width="792" height="612" viewBox="0 0 792 612">
  <rect width="792" height="612" fill="rgb(255,255,255)" />
  <line stroke="rgb(51,235,186)" stroke-width="1" x1="10" y1="602" x2="351" y2="602" />
  <line stroke="rgb(51,235,186)" stroke-width="1" x1="10" y1="507.6" x2="351" y2="507.6" />
  <line stroke="rgb(51,235,186)" stroke-width="1" x1="10" y1="401.5" x2="351" y2="401.5" />
  <line stroke="rgb(51,235,186)" stroke-width="1" x1="10" y1="301.5" x2="351" y2="301.5" />
  <line stroke="rgb(51,235,186)" stroke-width="1" x1="10" y1="602" x2="10" y2="20" />
  <line stroke="rgb(51,235,186)" stroke-width="1" x1="130" y1="602" x2="130" y2="20" />
  <line stroke="rgb(51,235,186)" stroke-width="1" x1="240" y1="602" x2="240" y2="20" />
  <line stroke="rgb(51,235,186)" stroke-width="1" x1="351" y1="602" x2="351" y2="20" />
  <rect stroke="rgb(125,51,235)" stroke-width="2" fill="none" x="10" y="10" width="772" height="592" />
  <text x="2" y="572" font-family="Courier New" font-size="12" fill="rgb(236,10,30)">1</text>
  <text x="2" y="477.6" font-family="Courier New" font-size="12" fill="rgb(236,10,30)">2</text>
  <text x="2" y="371.5" font-family="Courier New" font-size="12" fill="rgb(236,10,30)">3</text>
  <text x="40" y="610" font-family="Courier New" font-size="12" fill="rgb(236,10,30)">1</text>
  <text x="160" y="610" font-family="Courier New" font-size="12" fill="rgb(236,10,30)">2</text>
  <text x="270" y="610" font-family="Courier New" font-size="12" fill="rgb(236,10,30)">3</text>
  <text x="15" y="37" font-family="Verdana" font-size="11" fill="rgb(0,64,128)" font-weight="bold">Binary Association</text>
  <line stroke="rgb(0,0,0)" stroke-width="1" x1="70.0" y1="411.5" x2="70.0" y2="351.5" />
  <line stroke="rgb(0,0,0)" stroke-width="1" x1="70.0" y1="351.5" x2="295.5" y2="351.5" />
  <line stroke="rgb(0,0,0)" stroke-width="1" x1="295.5" y1="351.5" x2="295.5" y2="517.6" />
  <rect stroke="rgb(0,0,0)" stroke-width="1" fill="rgb(255,255,255)" x="20" y="438.5" width="100" height="59.1" />
  <rect stroke="rgb(0,0,0)" stroke-width="1" fill="rgb(255,255,255)" x="20" y="411.5" width="100" height="27.0" />
  <rect stroke="rgb(0,0,0)" stroke-width="1" fill="rgb(255,255,255)" x="250" y="544.6" width="91" height="47.4" />
  <rect stroke="rgb(0,0,0)" stroke-width="1" fill="rgb(255,255,255)" x="250" y="517.6" width="91" height="27.0" />
  <rect x="35.0" y="394.5" width="32" height="14" fill="rgb(255,255,255)" stroke="none" />
  <rect x="74.0" y="394.5" width="10" height="14" fill="rgb(255,255,255)" stroke="none" />
  <rect x="299.5" y="500.6" width="45" height="14" fill="rgb(255,255,255)" stroke="none" />
  <rect x="282.5" y="500.6" width="10" height="14" fill="rgb(255,255,255)" stroke="none" />
  <text x="25" y="487.6" font-family="Gill Sans" font-size="9" fill="rgb(0,0,0)">Heading : Compass</text>
  <text x="25" y="475.9" font-family="Gill Sans" font-size="9" fill="rgb(0,0,0)">Airspeed : Knots</text>
  <text x="25" y="464.20000000000005" font-family="Gill Sans" font-size="9" fill="rgb(0,0,0)">Altitude : Altitude MSL</text>
  <text x="25" y="452.5" font-family="Gill Sans" font-size="9" fill="rgb(0,0,0)">Tail number : ACAO {I}</text>
  <text x="45.5" y="431.0" font-family="Gill Sans" font-size="12" fill="rgb(0,0,0)" font-weight="bold">Aircraft</text>
  <text x="255" y="582.0" font-family="Gill Sans" font-size="9" fill="rgb(0,0,0)">Aircraft : ACAO {R1}</text>
  <text x="255" y="570.3" font-family="Gill Sans" font-size="9" fill="rgb(0,0,0)">Hours flown : Hours</text>
  <text x="255" y="558.6" font-family="Gill Sans" font-size="9" fill="rgb(0,0,0)">ID : Pilot ID {I}</text>
  <text x="280.5" y="537.1" font-family="Gill Sans" font-size="12" fill="rgb(0,0,0)" font-weight="bold">Pilot</text>
  <text x="37.0" y="405.5" font-family="Gill Sans" font-size="9" fill="rgb(0,0,0)">is flying</text>
  <text x="76.0" y="405.5" font-family="Gill Sans" font-size="9" fill="rgb(0,0,0)">1</text>
  <text x="301.5" y="511.6" font-family="Gill Sans" font-size="9" fill="rgb(0,0,0)">is flown by</text>
  <text x="284.5" y="511.6" font-family="Gill Sans" font-size="9" fill="rgb(0,0,0)">1</text>
  <text x="178.75" y="366.5" font-family="Gill Sans" font-size="9" fill="rgb(0,0,0)">R1</text>
</svg>