<svg xmlns="http://www.w3.org/2000/svg" width="792" height="612" viewBox="0 0 792 612">
  <rect width="792" height="612" fill="rgb(255,255,255)" />
  <line stroke="rgb(51,235,186)" stroke-width="1" x1="10" y1="602" x2="248" y2="602" />
  <line stroke="rgb(51,235,186)" stroke-width="1" x1="10" y1="507.6" x2="248" y2="507.6" />
  <line stroke="rgb(51,235,186)" stroke-width="1" x1="10" y1="413.2" x2="248" y2="413.2" />
  <line stroke="rgb(51,235,186)" stroke-width="1" x1="10" y1="307.1" x2="248" y2="307.1" />
  <line stroke="rgb(51,235,186)" stroke-width="1" x1="10" y1="602" x2="10" y2="20" />
  <line stroke="rgb(51,235,186)" stroke-width="1" x1="130" y1="602" x2="130" y2="20" />
  <line stroke="rgb(51,235,186)" stroke-width="1" x1="248" y1="602" x2="248" y2="20" />
  <rect stroke="rgb(125,51,235)" stroke-width="2" fill="none" x="10" y="10" width="772" height="592" />
  <text x="2" y="572" font-family="Courier New" font-size="12" fill="rgb(236,10,30)">1</text>
  <text x="2" y="477.6" font-family="Courier New" font-size="12" fill="rgb(236,10,30)">2</text>
  <text x="2" y="383.2" font-family="Courier New" font-size="12" fill="rgb(236,10,30)">3</text>
  <text x="40" y="610" font-family="Courier New" font-size="12" fill="rgb(236,10,30)">1</text>
  <text x="160" y="610" font-family="Courier New" font-size="12" fill="rgb(236,10,30)">2</text>
  <text x="15" y="37" font-family="Verdana" font-size="11" fill="rgb(0,64,128)" font-weight="bold">Associative Relationship</text>
  <line stroke="rgb(0,0,0)" stroke-width="1" x1="70.0" y1="403.2" x2="70.0" y2="517.6" />
  <line stroke="rgb(0,0,0)" stroke-width="1" stroke-dasharray="9 9" x1="140" y1="460.4" x2="70.0" y2="460.4" />
  <rect stroke="rgb(0,0,0)" stroke-width="1" fill="rgb(255,255,255)" x="20" y="344.09999999999997" width="100" height="59.1" />
  <rect stroke="rgb(0,0,0)" stroke-width="1" fill="rgb(255,255,255)" x="20" y="317.09999999999997" width="100" height="27.0" />
  <rect stroke="rgb(0,0,0)" stroke-width="1" fill="rgb(255,255,255)" x="24.5" y="544.6" width="91" height="47.4" />
  <rect stroke="rgb(0,0,0)" stroke-width="1" fill="rgb(255,255,255)" x="24.5" y="517.6" width="91" height="27.0" />
  <rect stroke="rgb(0,0,0)" stroke-width="1" fill="rgb(255,255,255)" x="140" y="450.20000000000005" width="98" height="47.4" />
  <rect stroke="rgb(0,0,0)" stroke-width="1" fill="rgb(255,255,255)" x="140" y="423.2" width="98" height="27.0" />
  <rect x="74.0" y="407.2" width="32" height="14" fill="rgb(255,255,255)" stroke="none" />
  <rect x="49.0" y="407.2" width="18" height="14" fill="rgb(255,255,255)" stroke="none" />
  <rect x="74.0" y="500.6" width="45" height="14" fill="rgb(255,255,255)" stroke="none" />
  <rect x="49.0" y="500.6" width="18" height="14" fill="rgb(255,255,255)" stroke="none" />
  <text x="25" y="393.19999999999993" font-family="Gill Sans" font-size="9" fill="rgb(0,0,0)">Heading : Compass</text>
  <text x="25" y="381.5" font-family="Gill Sans" font-size="9" fill="rgb(0,0,0)">Airspeed : Knots</text>
  <text x="25" y="369.79999999999995" font-family="Gill Sans" font-size="9" fill="rgb(0,0,0)">Altitude : Altitude MSL</text>
  <text x="25" y="358.1" font-family="Gill Sans" font-size="9" fill="rgb(0,0,0)">Tail number : ACAO {I}</text>
  <text x="45.5" y="336.59999999999997" font-family="Gill Sans" font-size="12" fill="rgb(0,0,0)" font-weight="bold">Aircraft</text>
  <text x="29.5" y="582.0" font-family="Gill Sans" font-size="9" fill="rgb(0,0,0)">Aircraft : ACAO {R1}</text>
  <text x="29.5" y="570.3" font-family="Gill Sans" font-size="9" fill="rgb(0,0,0)">Hours flown : Hours</text>
  <text x="29.5" y="558.6" font-family="Gill Sans" font-size="9" fill="rgb(0,0,0)">ID : Pilot ID {I}</text>
  <text x="55.0" y="537.1" font-family="Gill Sans" font-size="12" fill="rgb(0,0,0)" font-weight="bold">Pilot</text>
  <text x="145" y="487.6" font-family="Gill Sans" font-size="9" fill="rgb(0,0,0)">Flight time : Duration</text>
  <text x="145" y="475.9" font-family="Gill Sans" font-size="9" fill="rgb(0,0,0)">Pilot : Pilot ID {I2, R1}</text>
  <text x="145" y="464.20000000000005" font-family="Gill Sans" font-size="9" fill="rgb(0,0,0)">Aircraft : ACAO {I, R1}</text>
  <text x="171.0" y="442.7" font-family="Gill Sans" font-size="12" fill="rgb(0,0,0)" font-weight="bold">Flight</text>
  <text x="76.0" y="418.2" font-family="Gill Sans" font-size="9" fill="rgb(0,0,0)">is flying</text>
  <text x="51.0" y="418.2" font-family="Gill Sans" font-size="9" fill="rgb(0,0,0)">1..*</text>
  <text x="76.0" y="511.6" font-family="Gill Sans" font-size="9" fill="rgb(0,0,0)">is flown by</text>
  <text x="51.0" y="511.6" font-family="Gill Sans" font-size="9" fill="rgb(0,0,0)">0..*</text>
  <text x="54.0" y="464.4" font-family="Gill Sans" font-size="9" fill="rgb(0,0,0)">R1</text>
</svg>