<svg xmlns="http://www.w3.org/2000/svg" width="792" height="612" viewBox="0 0 792 612">
  <rect width="792" height="612" fill="rgb(255,255,255)" />
  <line stroke="rgb(51,235,186)" stroke-width="1" x1="10" y1="602" x2="469" y2="602" />
  <line stroke="rgb(51,235,186)" stroke-width="1" x1="10" y1="495.9" x2="469" y2="495.9" />
  <line stroke="rgb(51,235,186)" stroke-width="1" x1="10" y1="415.9" x2="469" y2="415.9" />
  <line stroke="rgb(51,235,186)" stroke-width="1" x1="10" y1="321.5" x2="469" y2="321.5" />
  <line stroke="rgb(51,235,186)" stroke-width="1" x1="10" y1="227.10000000000002" x2="469" y2="227.10000000000002" />
  <line stroke="rgb(51,235,186)" stroke-width="1" x1="10" y1="602" x2="10" y2="20" />
  <line stroke="rgb(51,235,186)" stroke-width="1" x1="130" y1="602" x2="130" y2="20" />
  <line stroke="rgb(51,235,186)" stroke-width="1" x1="241" y1="602" x2="241" y2="20" />
  <line stroke="rgb(51,235,186)" stroke-width="1" x1="351" y1="602" x2="351" y2="20" />
  <line stroke="rgb(51,235,186)" stroke-width="1" x1="469" y1="602" x2="469" y2="20" />
  <rect stroke="rgb(125,51,235)" stroke-width="2" fill="none" x="10" y="10" width="772" height="592" />
  <text x="2" y="572" font-family="Courier New" font-size="12" fill="rgb(236,10,30)">1</text>
  <text x="2" y="465.9" font-family="Courier New" font-size="12" fill="rgb(236,10,30)">2</text>
  <text x="2" y="385.9" font-family="Courier New" font-size="12" fill="rgb(236,10,30)">3</text>
  <text x="2" y="291.5" font-family="Courier New" font-size="12" fill="rgb(236,10,30)">4</text>
  <text x="40" y="610" font-family="Courier New" font-size="12" fill="rgb(236,10,30)">1</text>
  <text x="160" y="610" font-family="Courier New" font-size="12" fill="rgb(236,10,30)">2</text>
  <text x="271" y="610" font-family="Courier New" font-size="12" fill="rgb(236,10,30)">3</text>
  <text x="381" y="610" font-family="Courier New" font-size="12" fill="rgb(236,10,30)">4</text>
  <text x="15" y="37" font-family="Verdana" font-size="11" fill="rgb(0,64,128)" font-weight="bold">Associative Relationship</text>
  <line stroke="rgb(0,0,0)" stroke-width="1" x1="120" y1="548.95" x2="185.5" y2="548.95" />
  <line stroke="rgb(0,0,0)" stroke-width="1" x1="185.5" y1="548.95" x2="185.5" y2="311.5" />
  <line stroke="rgb(0,0,0)" stroke-width="1" stroke-dasharray="9 9" x1="361" y1="368.7" x2="185.5" y2="368.7" />
  <rect stroke="rgb(0,0,0)" stroke-width="1" fill="rgb(255,255,255)" x="20" y="532.9" width="100" height="59.1" />
  <rect stroke="rgb(0,0,0)" stroke-width="1" fill="rgb(255,255,255)" x="20" y="505.9" width="100" height="27.0" />
  <rect stroke="rgb(0,0,0)" stroke-width="1" fill="rgb(255,255,255)" x="140" y="264.1" width="91" height="47.4" />
  <rect stroke="rgb(0,0,0)" stroke-width="1" fill="rgb(255,255,255)" x="140" y="237.10000000000002" width="91" height="27.0" />
  <rect stroke="rgb(0,0,0)" stroke-width="1" fill="rgb(255,255,255)" x="361" y="358.5" width="98" height="47.4" />
  <rect stroke="rgb(0,0,0)" stroke-width="1" fill="rgb(255,255,255)" x="361" y="331.5" width="98" height="27.0" />
  <rect x="124" y="531.95" width="32" height="14" fill="rgb(255,255,255)" stroke="none" />
  <rect x="124" y="552.95" width="18" height="14" fill="rgb(255,255,255)" stroke="none" />
  <rect x="189.5" y="315.5" width="45" height="14" fill="rgb(255,255,255)" stroke="none" />
  <rect x="164.5" y="315.5" width="18" height="14" fill="rgb(255,255,255)" stroke="none" />
  <text x="25" y="582.0" font-family="Gill Sans" font-size="9" fill="rgb(0,0,0)">Heading : Compass</text>
  <text x="25" y="570.3" font-family="Gill Sans" font-size="9" fill="rgb(0,0,0)">Airspeed : Knots</text>
  <text x="25" y="558.6" font-family="Gill Sans" font-size="9" fill="rgb(0,0,0)">Altitude : Altitude MSL</text>
  <text x="25" y="546.9" font-family="Gill Sans" font-size="9" fill="rgb(0,0,0)">Tail number : ACAO {I}</text>
  <text x="45.5" y="525.4" font-family="Gill Sans" font-size="12" fill="rgb(0,0,0)" font-weight="bold">Aircraft</text>
  <text x="145" y="301.5" font-family="Gill Sans" font-size="9" fill="rgb(0,0,0)">Aircraft : ACAO {R1}</text>
  <text x="145" y="289.8" font-family="Gill Sans" font-size="9" fill="rgb(0,0,0)">Hours flown : Hours</text>
  <text x="145" y="278.1" font-family="Gill Sans" font-size="9" fill="rgb(0,0,0)">ID : Pilot ID {I}</text>
  <text x="170.5" y="256.6" font-family="Gill Sans" font-size="12" fill="rgb(0,0,0)" font-weight="bold">Pilot</text>
  <text x="366" y="395.9" font-family="Gill Sans" font-size="9" fill="rgb(0,0,0)">Flight time : Duration</text>
  <text x="366" y="384.20000000000005" font-family="Gill Sans" font-size="9" fill="rgb(0,0,0)">Pilot : Pilot ID {I2, R1}</text>
  <text x="366" y="372.5" font-family="Gill Sans" font-size="9" fill="rgb(0,0,0)">Aircraft : ACAO {I, R1}</text>
  <text x="392.0" y="351.0" font-family="Gill Sans" font-size="12" fill="rgb(0,0,0)" font-weight="bold">Flight</text>
  <text x="126" y="542.95" font-family="Gill Sans" font-size="9" fill="rgb(0,0,0)">is flying</text>
  <text x="126" y="563.95" font-family="Gill Sans" font-size="9" fill="rgb(0,0,0)">1..*</text>
  <text x="191.5" y="326.5" font-family="Gill Sans" font-size="9" fill="rgb(0,0,0)">is flown by</text>
  <text x="166.5" y="326.5" font-family="Gill Sans" font-size="9" fill="rgb(0,0,0)">0..*</text>
  <text x="169.5" y="434.225" font-family="Gill Sans" font-size="9" fill="rgb(0,0,0)">R1</text>
</svg>