<svg xmlns="http://www.w3.org/2000/svg" width="792" height="612" viewBox="0 0 792 612">
  <rect width="792" height="612" fill="rgb(255,255,255)" />
  <line stroke="rgb(51,235,186)" stroke-width="1" x1="10" y1="602" x2="468" y2="602" />
  <line stroke="rgb(51,235,186)" stroke-width="1" x1="10" y1="495.9" x2="468" y2="495.9" />
  <line stroke="rgb(51,235,186)" stroke-width="1" x1="10" y1="401.5" x2="468" y2="401.5" />
  <line stroke="rgb(51,235,186)" stroke-width="1" x1="10" y1="307.1" x2="468" y2="307.1" />
  <line stroke="rgb(51,235,186)" stroke-width="1" x1="10" y1="602" x2="10" y2="20" />
  <line stroke="rgb(51,235,186)" stroke-width="1" x1="130" y1="602" x2="130" y2="20" />
  <line stroke="rgb(51,235,186)" stroke-width="1" x1="240" y1="602" x2="240" y2="20" />
  <line stroke="rgb(51,235,186)" stroke-width="1" x1="350" y1="602" x2="350" y2="20" />
  <line stroke="rgb(51,235,186)" stroke-width="1" x1="468" y1="602" x2="468" y2="20" />
  <rect stroke="rgb(125,51,235)" stroke-width="2" fill="none" x="10" y="10" width="772" height="592" />
  <text x="2" y="572" font-family="Courier New" font-size="12" fill="rgb(236,10,30)">1</text>
  <text x="2" y="465.9" font-family="Courier New" font-size="12" fill="rgb(236,10,30)">2</text>
  <text x="2" y="371.5" font-family="Courier New" font-size="12" fill="rgb(236,10,30)">3</text>
  <text x="40" y="610" font-family="Courier New" font-size="12" fill="rgb(236,10,30)">1</text>
  <text x="160" y="610" font-family="Courier New" font-size="12" fill="rgb(236,10,30)">2</text>
  <text x="270" y="610" font-family="Courier New" font-size="12" fill="rgb(236,10,30)">3</text>
  <text x="380" y="610" font-family="Courier New" font-size="12" fill="rgb(236,10,30)">4</text>
  <text x="15" y="37" font-family="Verdana" font-size="11" fill="rgb(0,64,128)" font-weight="bold">Associative Relationship</text>
  <line stroke="rgb(0,0,0)" stroke-width="1" x1="70.0" y1="505.9" x2="70.0" y2="354.3" />
  <line stroke="rgb(0,0,0)" stroke-width="1" x1="70.0" y1="354.3" x2="295.0" y2="354.3" />
  <line stroke="rgb(0,0,0)" stroke-width="1" x1="295.0" y1="354.3" x2="295.0" y2="448.7" />
  <line stroke="rgb(0,0,0)" stroke-width="1" x1="295.0" y1="448.7" x2="343.5" y2="448.7" />
  <line stroke="rgb(0,0,0)" stroke-width="1" x1="343.5" y1="448.7" x2="363.5" y2="448.7" />
  <line stroke="rgb(0,0,0)" stroke-width="1" stroke-dasharray="9 9" x1="360" y1="354.3" x2="295.0" y2="354.3" />
  <rect stroke="rgb(0,0,0)" stroke-width="1" fill="rgb(255,255,255)" x="20" y="532.9" width="100" height="59.1" />
  <rect stroke="rgb(0,0,0)" stroke-width="1" fill="rgb(255,255,255)" x="20" y="505.9" width="100" height="27.0" />
  <rect stroke="rgb(0,0,0)" stroke-width="1" fill="rgb(255,255,255)" x="363.5" y="438.5" width="91" height="47.4" />
  <rect stroke="rgb(0,0,0)" stroke-width="1" fill="rgb(255,255,255)" x="363.5" y="411.5" width="91" height="27.0" />
  <rect stroke="rgb(0,0,0)" stroke-width="1" fill="rgb(255,255,255)" x="360" y="344.1" width="98" height="47.4" />
  <rect stroke="rgb(0,0,0)" stroke-width="1" fill="rgb(255,255,255)" x="360" y="317.1" width="98" height="27.0" />
  <rect x="74.0" y="488.9" width="32" height="14" fill="rgb(255,255,255)" stroke="none" />
  <rect x="49.0" y="488.9" width="18" height="14" fill="rgb(255,255,255)" stroke="none" />
  <rect x="315.5" y="452.7" width="45" height="14" fill="rgb(255,255,255)" stroke="none" />
  <rect x="342.5" y="431.7" width="18" height="14" fill="rgb(255,255,255)" stroke="none" />
  <text x="25" y="582.0" font-family="Gill Sans" font-size="9" fill="rgb(0,0,0)">Heading : Compass</text>
  <text x="25" y="570.3" font-family="Gill Sans" font-size="9" fill="rgb(0,0,0)">Airspeed : Knots</text>
  <text x="25" y="558.6" font-family="Gill Sans" font-size="9" fill="rgb(0,0,0)">Altitude : Altitude MSL</text>
  <text x="25" y="546.9" font-family="Gill Sans" font-size="9" fill="rgb(0,0,0)">Tail number : ACAO {I}</text>
  <text x="45.5" y="525.4" font-family="Gill Sans" font-size="12" fill="rgb(0,0,0)" font-weight="bold">Aircraft</text>
  <text x="368.5" y="475.9" font-family="Gill Sans" font-size="9" fill="rgb(0,0,0)">Aircraft : ACAO {R1}</text>
  <text x="368.5" y="464.20000000000005" font-family="Gill Sans" font-size="9" fill="rgb(0,0,0)">Hours flown : Hours</text>
  <text x="368.5" y="452.5" font-family="Gill Sans" font-size="9" fill="rgb(0,0,0)">ID : Pilot ID {I}</text>
  <text x="394.0" y="431.0" font-family="Gill Sans" font-size="12" fill="rgb(0,0,0)" font-weight="bold">Pilot</text>
  <text x="365" y="381.5" font-family="Gill Sans" font-size="9" fill="rgb(0,0,0)">Flight time : Duration</text>
  <text x="365" y="369.80000000000007" font-family="Gill Sans" font-size="9" fill="rgb(0,0,0)">Pilot : Pilot ID {I2, R1}</text>
  <text x="365" y="358.1" font-family="Gill Sans" font-size="9" fill="rgb(0,0,0)">Aircraft : ACAO {I, R1}</text>
  <text x="391.0" y="336.6" font-family="Gill Sans" font-size="12" fill="rgb(0,0,0)" font-weight="bold">Flight</text>
  <text x="76.0" y="499.9" font-family="Gill Sans" font-size="9" fill="rgb(0,0,0)">is flying</text>
  <text x="51.0" y="499.9" font-family="Gill Sans" font-size="9" fill="rgb(0,0,0)">1..*</text>
  <text x="317.5" y="463.7" font-family="Gill Sans" font-size="9" fill="rgb(0,0,0)">is flown by</text>
  <text x="344.5" y="442.7" font-family="Gill Sans" font-size="9" fill="rgb(0,0,0)">0..*</text>
  <text x="178.5" y="348.3" font-family="Gill Sans" font-size="9" fill="rgb(0,0,0)">R1</text>
</svg>