<svg xmlns="http://www.w3.org/2000/svg" width="792" height="612" viewBox="0 0 792 612">
  <rect width="792" height="612" fill="rgb(255,255,255)" />
  <line stroke="rgb(51,235,186)" stroke-width="1" x1="10" y1="602" x2="587" y2="602" />
  <line stroke="rgb(51,235,186)" stroke-width="1" x1="10" y1="507.6" x2="587" y2="507.6" />
  <line stroke="rgb(51,235,186)" stroke-width="1" x1="10" y1="427.6" x2="587" y2="427.6" />
  <line stroke="rgb(51,235,186)" stroke-width="1" x1="10" y1="333.2" x2="587" y2="333.2" />
  <line stroke="rgb(51,235,186)" stroke-width="1" x1="10" y1="227.10000000000002" x2="587" y2="227.10000000000002" />
  <line stroke="rgb(51,235,186)" stroke-width="1" x1="10" y1="144.40000000000003" x2="587" y2="144.40000000000003" />
  <line stroke="rgb(51,235,186)" stroke-width="1" x1="10" y1="602" x2="10" y2="20" />
  <line stroke="rgb(51,235,186)" stroke-width="1" x1="142" y1="602" x2="142" y2="20" />
  <line stroke="rgb(51,235,186)" stroke-width="1" x1="296" y1="602" x2="296" y2="20" />
  <line stroke="rgb(51,235,186)" stroke-width="1" x1="455" y1="602" x2="455" y2="20" />
  <line stroke="rgb(51,235,186)" stroke-width="1" x1="587" y1="602" x2="587" y2="20" />
  <rect stroke="rgb(125,51,235)" stroke-width="2" fill="none" x="10" y="10" width="772" height="592" />
  <text x="2" y="572" font-family="Verdana" font-size="16" fill="rgb(255,255,255)">1</text>
  <text x="2" y="477.6" font-family="Verdana" font-size="16" fill="rgb(255,255,255)">2</text>
  <text x="2" y="397.6" font-family="Verdana" font-size="16" fill="rgb(255,255,255)">3</text>
  <text x="2" y="303.2" font-family="Verdana" font-size="16" fill="rgb(255,255,255)">4</text>
  <text x="2" y="197.10000000000002" font-family="Verdana" font-size="16" fill="rgb(255,255,255)">5</text>
  <text x="40" y="610" font-family="Verdana" font-size="16" fill="rgb(255,255,255)">1</text>
  <text x="172" y="610" font-family="Verdana" font-size="16" fill="rgb(255,255,255)">2</text>
  <text x="326" y="610" font-family="Verdana" font-size="16" fill="rgb(255,255,255)">3</text>
  <text x="485" y="610" font-family="Verdana" font-size="16" fill="rgb(255,255,255)">4</text>
  <text x="15" y="37" font-family="Eurostile BoldExtendedTwo" font-size="11" fill="rgb(0,64,128)">Five Subclasses</text>
  <line stroke="rgb(0,0,0)" stroke-width="1" x1="132" y1="380.4" x2="465" y2="380.4" />
  <line stroke="rgb(0,0,0)" stroke-width="1" x1="132" y1="380.4" x2="132" y2="380.4" />
  <line stroke="rgb(0,0,0)" stroke-width="1" x1="219.0" y1="323.2" x2="219.0" y2="380.4" />
  <line stroke="rgb(0,0,0)" stroke-width="1" x1="375.5" y1="529.3" x2="375.5" y2="380.4" />
  <line stroke="rgb(0,0,0)" stroke-width="1" x1="219.0" y1="517.6" x2="219.0" y2="380.4" />
  <line stroke="rgb(0,0,0)" stroke-width="1" x1="398.6666666666667" y1="217.10000000000002" x2="398.6666666666667" y2="380.4" />
  <g transform="rotate(180,219.0,323.2)">
    <polygon stroke="rgb(0,0,0)" stroke-width="1" fill="rgb(255,255,255)" points="211.0,311.2 219.0,323.2 227.0,311.2" />
  </g>
  <rect stroke="rgb(0,0,0)" stroke-width="1" fill="rgb(255,255,255)" x="152" y="264.09999999999997" width="134" height="59.1" />
  <rect stroke="rgb(0,0,0)" stroke-width="1" fill="rgb(255,255,255)" x="152" y="237.09999999999997" width="134" height="27.0" />
  <rect stroke="rgb(0,0,0)" stroke-width="1" fill="rgb(255,255,255)" x="20" y="370.20000000000005" width="112" height="47.4" />
  <rect stroke="rgb(0,0,0)" stroke-width="1" fill="rgb(255,255,255)" x="20" y="343.2" width="112" height="27.0" />
  <rect stroke="rgb(0,0,0)" stroke-width="1" fill="rgb(255,255,255)" x="163.0" y="544.6" width="112" height="47.4" />
  <rect stroke="rgb(0,0,0)" stroke-width="1" fill="rgb(255,255,255)" x="163.0" y="517.6" width="112" height="27.0" />
  <rect stroke="rgb(0,0,0)" stroke-width="1" fill="rgb(255,255,255)" x="319.5" y="556.3" width="112" height="24.0" />
  <rect stroke="rgb(0,0,0)" stroke-width="1" fill="rgb(255,255,255)" x="319.5" y="529.3" width="112" height="27.0" />
  <rect stroke="rgb(0,0,0)" stroke-width="1" fill="rgb(255,255,255)" x="306" y="181.40000000000003" width="139" height="35.7" />
  <rect stroke="rgb(0,0,0)" stroke-width="1" fill="rgb(255,255,255)" x="306" y="154.40000000000003" width="139" height="27.0" />
  <rect stroke="rgb(0,0,0)" stroke-width="1" fill="rgb(255,255,255)" x="465" y="376.05" width="112" height="35.7" />
  <rect stroke="rgb(0,0,0)" stroke-width="1" fill="rgb(255,255,255)" x="465" y="349.05" width="112" height="27.0" />
  <rect x="232.0" y="329.2" width="112" height="14" fill="rgb(255,255,255)" stroke="none" />
  <rect x="201.0" y="341.2" width="15" height="14" fill="rgb(255,255,255)" stroke="none" />
  <text x="157" y="313.2" font-family="Palatino Sans Informal LT Pro" font-size="9" fill="rgb(0,0,0)">Heading : Compass</text>
  <text x="157" y="301.5" font-family="Palatino Sans Informal LT Pro" font-size="9" fill="rgb(0,0,0)">Airspeed : Knots</text>
  <text x="157" y="289.8" font-family="Palatino Sans Informal LT Pro" font-size="9" fill="rgb(0,0,0)">Altitude : Altitude MSL</text>
  <text x="157" y="278.1" font-family="Palatino Sans Informal LT Pro" font-size="9" fill="rgb(0,0,0)">Tail number : ACAO {I}</text>
  <text x="190.5" y="256.59999999999997" font-family="Palatino Sans Informal LT Pro" font-size="12" fill="rgb(0,0,0)" font-weight="bold">Aircraft</text>
  <text x="25" y="407.6" font-family="Palatino Sans Informal LT Pro" font-size="9" fill="rgb(0,0,0)">Landing pad {R4}</text>
  <text x="25" y="395.9" font-family="Palatino Sans Informal LT Pro" font-size="9" fill="rgb(0,0,0)">Landing gear : Gear</text>
  <text x="25" y="384.20000000000005" font-family="Palatino Sans Informal LT Pro" font-size="9" fill="rgb(0,0,0)">Tail number {I, R1}</text>
  <text x="40.0" y="362.7" font-family="Palatino Sans Informal LT Pro" font-size="12" fill="rgb(0,0,0)" font-weight="bold">Helicopter</text>
  <text x="168.0" y="582.0" font-family="Palatino Sans Informal LT Pro" font-size="9" fill="rgb(0,0,0)">Runway {R5}</text>
  <text x="168.0" y="570.3" font-family="Palatino Sans Informal LT Pro" font-size="9" fill="rgb(0,0,0)">Weight : Category</text>
  <text x="168.0" y="558.6" font-family="Palatino Sans Informal LT Pro" font-size="9" fill="rgb(0,0,0)">Tail number {I, R1}</text>
  <text x="183.0" y="537.1" font-family="Palatino Sans Informal LT Pro" font-size="12" fill="rgb(0,0,0)" font-weight="bold">Fixed Wing</text>
  <text x="324.5" y="570.3" font-family="Palatino Sans Informal LT Pro" font-size="9" fill="rgb(0,0,0)">Tail number {I, R1}</text>
  <text x="336.0" y="548.8" font-family="Palatino Sans Informal LT Pro" font-size="12" fill="rgb(0,0,0)" font-weight="bold">Hybrid Wing</text>
  <text x="311" y="207.10000000000002" font-family="Palatino Sans Informal LT Pro" font-size="9" fill="rgb(0,0,0)">R2 unit status : Boolean</text>
  <text x="311" y="195.40000000000003" font-family="Palatino Sans Informal LT Pro" font-size="9" fill="rgb(0,0,0)">Tail number {I, R1}</text>
  <text x="354.0" y="173.90000000000003" font-family="Palatino Sans Informal LT Pro" font-size="12" fill="rgb(0,0,0)" font-weight="bold">X Wing</text>
  <text x="470" y="401.75" font-family="Palatino Sans Informal LT Pro" font-size="9" fill="rgb(0,0,0)">Spin rate : RPM</text>
  <text x="470" y="390.05" font-family="Palatino Sans Informal LT Pro" font-size="9" fill="rgb(0,0,0)">Tail number {I, R1}</text>
  <text x="481.5" y="368.55" font-family="Palatino Sans Informal LT Pro" font-size="12" fill="rgb(0,0,0)" font-weight="bold">Tie Fighter</text>
  <text x="234.0" y="340.2" font-family="Palatino Sans Informal LT Pro" font-size="9" fill="rgb(0,0,0)">{disjoint, complete}</text>
  <text x="203.0" y="352.2" font-family="Palatino Sans Informal LT Pro" font-size="9" fill="rgb(0,0,0)">R1</text>
</svg>