<svg xmlns="http://www.w3.org/2000/svg" width="792" height="612" viewBox="0 0 792 612">
  <rect width="792" height="612" fill="rgb(255,255,255)" />
  <line stroke="rgb(51,235,186)" stroke-width="1" x1="10" y1="602" x2="448" y2="602" />
  <line stroke="rgb(51,235,186)" stroke-width="1" x1="10" y1="522" x2="448" y2="522" />
  <line stroke="rgb(51,235,186)" stroke-width="1" x1="10" y1="427.6" x2="448" y2="427.6" />
  <line stroke="rgb(51,235,186)" stroke-width="1" x1="10" y1="321.5" x2="448" y2="321.5" />
  <line stroke="rgb(51,235,186)" stroke-width="1" x1="10" y1="602" x2="10" y2="20" />
  <line stroke="rgb(51,235,186)" stroke-width="1" x1="130" y1="602" x2="130" y2="20" />
  <line stroke="rgb(51,235,186)" stroke-width="1" x1="235" y1="602" x2="235" y2="20" />
  <line stroke="rgb(51,235,186)" stroke-width="1" x1="337" y1="602" x2="337" y2="20" />
  <line stroke="rgb(51,235,186)" stroke-width="1" x1="448" y1="602" x2="448" y2="20" />
  <rect stroke="rgb(125,51,235)" stroke-width="2" fill="none" x="10" y="10" width="772" height="592" />
  <text x="2" y="572" font-family="Courier New" font-size="12" fill="rgb(236,10,30)">1</text>
  <text x="2" y="492" font-family="Courier New" font-size="12" fill="rgb(236,10,30)">2</text>
  <text x="2" y="397.6" font-family="Courier New" font-size="12" fill="rgb(236,10,30)">3</text>
  <text x="40" y="610" font-family="Courier New" font-size="12" fill="rgb(236,10,30)">1</text>
  <text x="160" y="610" font-family="Courier New" font-size="12" fill="rgb(236,10,30)">2</text>
  <text x="265" y="610" font-family="Courier New" font-size="12" fill="rgb(236,10,30)">3</text>
  <text x="367" y="610" font-family="Courier New" font-size="12" fill="rgb(236,10,30)">4</text>
  <text x="15" y="37" font-family="Verdana" font-size="11" fill="rgb(0,64,128)" font-weight="bold">Five Subclasses</text>
  <line stroke="rgb(0,0,0)" stroke-width="1" x1="120" y1="374.55" x2="392.5" y2="374.55" />
  <line stroke="rgb(0,0,0)" stroke-width="1" x1="182.5" y1="437.6" x2="182.5" y2="374.55" />
  <line stroke="rgb(0,0,0)" stroke-width="1" x1="120" y1="374.55" x2="120" y2="374.55" />
  <line stroke="rgb(0,0,0)" stroke-width="1" x1="286.0" y1="437.6" x2="286.0" y2="374.55" />
  <line stroke="rgb(0,0,0)" stroke-width="1" x1="392.5" y1="449.3" x2="392.5" y2="374.55" />
  <g transform="rotate(90,120,374.55)">
    <polygon stroke="rgb(0,0,0)" stroke-width="1" fill="rgb(255,255,255)" points="112,362.55 120,374.55 128,362.55" />
  </g>
  <rect stroke="rgb(0,0,0)" stroke-width="1" fill="rgb(255,255,255)" x="20" y="358.5" width="100" height="59.1" />
  <rect stroke="rgb(0,0,0)" stroke-width="1" fill="rgb(255,255,255)" x="20" y="331.5" width="100" height="27.0" />
  <rect stroke="rgb(0,0,0)" stroke-width="1" fill="rgb(255,255,255)" x="140" y="464.6" width="85" height="47.4" />
  <rect stroke="rgb(0,0,0)" stroke-width="1" fill="rgb(255,255,255)" x="140" y="437.6" width="85" height="27.0" />
  <rect stroke="rgb(0,0,0)" stroke-width="1" fill="rgb(255,255,255)" x="245" y="464.6" width="82" height="47.4" />
  <rect stroke="rgb(0,0,0)" stroke-width="1" fill="rgb(255,255,255)" x="245" y="437.6" width="82" height="27.0" />
  <rect stroke="rgb(0,0,0)" stroke-width="1" fill="rgb(255,255,255)" x="347" y="476.3" width="91" height="24.0" />
  <rect stroke="rgb(0,0,0)" stroke-width="1" fill="rgb(255,255,255)" x="347" y="449.3" width="91" height="27.0" />
  <rect x="133" y="355.55" width="77" height="14" fill="rgb(255,255,255)" stroke="none" />
  <rect x="138" y="357.55" width="15" height="14" fill="rgb(255,255,255)" stroke="none" />
  <text x="25" y="407.6" font-family="Gill Sans" font-size="9" fill="rgb(0,0,0)">Heading : Compass</text>
  <text x="25" y="395.9" font-family="Gill Sans" font-size="9" fill="rgb(0,0,0)">Airspeed : Knots</text>
  <text x="25" y="384.20000000000005" font-family="Gill Sans" font-size="9" fill="rgb(0,0,0)">Altitude : Altitude MSL</text>
  <text x="25" y="372.5" font-family="Gill Sans" font-size="9" fill="rgb(0,0,0)">Tail number : ACAO {I}</text>
  <text x="45.5" y="351.0" font-family="Gill Sans" font-size="12" fill="rgb(0,0,0)" font-weight="bold">Aircraft</text>
  <text x="145" y="502.0" font-family="Gill Sans" font-size="9" fill="rgb(0,0,0)">Landing pad {R4}</text>
  <text x="145" y="490.3" font-family="Gill Sans" font-size="9" fill="rgb(0,0,0)">Landing gear : Gear</text>
  <text x="145" y="478.6" font-family="Gill Sans" font-size="9" fill="rgb(0,0,0)">Tail number {I, R1}</text>
  <text x="149.0" y="457.1" font-family="Gill Sans" font-size="12" fill="rgb(0,0,0)" font-weight="bold">Helicopter</text>
  <text x="250" y="502.0" font-family="Gill Sans" font-size="9" fill="rgb(0,0,0)">Runway {R5}</text>
  <text x="250" y="490.3" font-family="Gill Sans" font-size="9" fill="rgb(0,0,0)">Weight : Category</text>
  <text x="250" y="478.6" font-family="Gill Sans" font-size="9" fill="rgb(0,0,0)">Tail number {I, R1}</text>
  <text x="251.0" y="457.1" font-family="Gill Sans" font-size="12" fill="rgb(0,0,0)" font-weight="bold">Fixed Wing</text>
  <text x="352" y="490.3" font-family="Gill Sans" font-size="9" fill="rgb(0,0,0)">Tail number {I, R1}</text>
  <text x="352.0" y="468.8" font-family="Gill Sans" font-size="12" fill="rgb(0,0,0)" font-weight="bold">Hybrid Wing</text>
  <text x="135" y="366.55" font-family="Gill Sans" font-size="9" fill="rgb(0,0,0)">{disjoint, complete}</text>
  <text x="140" y="368.55" font-family="Gill Sans" font-size="9" fill="rgb(0,0,0)">R1</text>
</svg>