<svg xmlns="http://www.w3.org/2000/svg" width="792" height="612" viewBox="0 0 792 612">
  <rect width="792" height="612" fill="rgb(255,255,255)" />
  <line stroke="rgb(51,235,186)" stroke-width="1" x1="10" y1="602" x2="670" y2="602" />
  <line stroke="rgb(51,235,186)" stroke-width="1" x1="10" y1="522" x2="670" y2="522" />
  <line stroke="rgb(51,235,186)" stroke-width="1" x1="10" y1="427.6" x2="670" y2="427.6" />
  <line stroke="rgb(51,235,186)" stroke-width="1" x1="10" y1="321.5" x2="670" y2="321.5" />
  <line stroke="rgb(51,235,186)" stroke-width="1" x1="10" y1="602" x2="10" y2="20" />
  <line stroke="rgb(51,235,186)" stroke-width="1" x1="120" y1="602" x2="120" y2="20" />
  <line stroke="rgb(51,235,186)" stroke-width="1" x1="252" y1="602" x2="252" y2="20" />
  <line stroke="rgb(51,235,186)" stroke-width="1" x1="384" y1="602" x2="384" y2="20" />
  <line stroke="rgb(51,235,186)" stroke-width="1" x1="516" y1="602" x2="516" y2="20" />
  <line stroke="rgb(51,235,186)" stroke-width="1" x1="670" y1="602" x2="670" y2="20" />
  <rect stroke="rgb(125,51,235)" stroke-width="2" fill="none" x="10" y="10" width="772" height="592" />
  <text x="2" y="572" font-family="Verdana" font-size="16" fill="rgb(255,255,255)">1</text>
  <text x="2" y="492" font-family="Verdana" font-size="16" fill="rgb(255,255,255)">2</text>
  <text x="2" y="397.6" font-family="Verdana" font-size="16" fill="rgb(255,255,255)">3</text>
  <text x="40" y="610" font-family="Verdana" font-size="16" fill="rgb(255,255,255)">1</text>
  <text x="150" y="610" font-family="Verdana" font-size="16" fill="rgb(255,255,255)">2</text>
  <text x="282" y="610" font-family="Verdana" font-size="16" fill="rgb(255,255,255)">3</text>
  <text x="414" y="610" font-family="Verdana" font-size="16" fill="rgb(255,255,255)">4</text>
  <text x="546" y="610" font-family="Verdana" font-size="16" fill="rgb(255,255,255)">5</text>
  <text x="15" y="37" font-family="Eurostile BoldExtendedTwo" font-size="11" fill="rgb(0,64,128)">Five Subclasses</text>
  <line stroke="rgb(0,0,0)" stroke-width="1" x1="186.0" y1="374.55" x2="526" y2="374.55" />
  <line stroke="rgb(0,0,0)" stroke-width="1" x1="318.0" y1="437.6" x2="318.0" y2="374.55" />
  <line stroke="rgb(0,0,0)" stroke-width="1" x1="450.0" y1="449.3" x2="450.0" y2="374.55" />
  <line stroke="rgb(0,0,0)" stroke-width="1" x1="526" y1="374.55" x2="526" y2="374.55" />
  <line stroke="rgb(0,0,0)" stroke-width="1" x1="186.0" y1="437.6" x2="186.0" y2="374.55" />
  <g transform="rotate(270,526,374.55)">
    <polygon stroke="rgb(0,0,0)" stroke-width="1" fill="rgb(255,255,255)" points="518,362.55 526,374.55 534,362.55" />
  </g>
  <rect stroke="rgb(0,0,0)" stroke-width="1" fill="rgb(255,255,255)" x="526" y="358.5" width="134" height="59.1" />
  <rect stroke="rgb(0,0,0)" stroke-width="1" fill="rgb(255,255,255)" x="526" y="331.5" width="134" height="27.0" />
  <rect stroke="rgb(0,0,0)" stroke-width="1" fill="rgb(255,255,255)" x="130" y="464.6" width="112" height="47.4" />
  <rect stroke="rgb(0,0,0)" stroke-width="1" fill="rgb(255,255,255)" x="130" y="437.6" width="112" height="27.0" />
  <rect stroke="rgb(0,0,0)" stroke-width="1" fill="rgb(255,255,255)" x="262" y="464.6" width="112" height="47.4" />
  <rect stroke="rgb(0,0,0)" stroke-width="1" fill="rgb(255,255,255)" x="262" y="437.6" width="112" height="27.0" />
  <rect stroke="rgb(0,0,0)" stroke-width="1" fill="rgb(255,255,255)" x="394" y="476.3" width="112" height="24.0" />
  <rect stroke="rgb(0,0,0)" stroke-width="1" fill="rgb(255,255,255)" x="394" y="449.3" width="112" height="27.0" />
  <rect x="402" y="355.55" width="112" height="14" fill="rgb(255,255,255)" stroke="none" />
  <rect x="494" y="378.55" width="15" height="14" fill="rgb(255,255,255)" stroke="none" />
  <text x="531" y="407.6" font-family="Palatino Sans Informal LT Pro" font-size="9" fill="rgb(0,0,0)">Heading : Compass</text>
  <text x="531" y="395.9" font-family="Palatino Sans Informal LT Pro" font-size="9" fill="rgb(0,0,0)">Airspeed : Knots</text>
  <text x="531" y="384.20000000000005" font-family="Palatino Sans Informal LT Pro" font-size="9" fill="rgb(0,0,0)">Altitude : Altitude MSL</text>
  <text x="531" y="372.5" font-family="Palatino Sans Informal LT Pro" font-size="9" fill="rgb(0,0,0)">Tail number : ACAO {I}</text>
  <text x="564.5" y="351.0" font-family="Palatino Sans Informal LT Pro" font-size="12" fill="rgb(0,0,0)" font-weight="bold">Aircraft</text>
  <text x="135" y="502.0" font-family="Palatino Sans Informal LT Pro" font-size="9" fill="rgb(0,0,0)">Landing pad {R4}</text>
  <text x="135" y="490.3" font-family="Palatino Sans Informal LT Pro" font-size="9" fill="rgb(0,0,0)">Landing gear : Gear</text>
  <text x="135" y="478.6" font-family="Palatino Sans Informal LT Pro" font-size="9" fill="rgb(0,0,0)">Tail number {I, R1}</text>
  <text x="150.0" y="457.1" font-family="Palatino Sans Informal LT Pro" font-size="12" fill="rgb(0,0,0)" font-weight="bold">Helicopter</text>
  <text x="267" y="502.0" font-family="Palatino Sans Informal LT Pro" font-size="9" fill="rgb(0,0,0)">Runway {R5}</text>
  <text x="267" y="490.3" font-family="Palatino Sans Informal LT Pro" font-size="9" fill="rgb(0,0,0)">Weight : Category</text>
  <text x="267" y="478.6" font-family="Palatino Sans Informal LT Pro" font-size="9" fill="rgb(0,0,0)">Tail number {I, R1}</text>
  <text x="282.0" y="457.1" font-family="Palatino Sans Informal LT Pro" font-size="12" fill="rgb(0,0,0)" font-weight="bold">Fixed Wing</text>
  <text x="399" y="490.3" font-family="Palatino Sans Informal LT Pro" font-size="9" fill="rgb(0,0,0)">Tail number {I, R1}</text>
  <text x="410.5" y="468.8" font-family="Palatino Sans Informal LT Pro" font-size="12" fill="rgb(0,0,0)" font-weight="bold">Hybrid Wing</text>
  <text x="404" y="366.55" font-family="Palatino Sans Informal LT Pro" font-size="9" fill="rgb(0,0,0)">{disjoint, complete}</text>
  <text x="496" y="389.55" font-family="Palatino Sans Informal LT Pro" font-size="9" fill="rgb(0,0,0)">R1</text>
</svg>